<?xml version="1.0" encoding="UTF-8"?> <svg xmlns="http://www.w3.org/2000/svg" width="140" height="107" viewBox="0 0 140 107" fill="none"> <path fill-rule="evenodd" clip-rule="evenodd" d="M70.0066 40.5808H70.6569V45.8309H69.2315V40.5808H69.8819H70.0066ZM68.9363 30.638C68.9233 30.6261 68.9233 30.6024 68.9233 30.5905C68.9233 30.5787 68.9233 30.555 68.9363 30.5431H68.9233C68.9233 30.5313 68.9363 30.5312 68.9487 30.5194V30.5075C68.9487 30.5075 68.9487 30.5075 68.9363 30.5194C68.9363 30.5194 68.9233 30.5312 68.9109 30.5312V30.5431V30.5312V30.4127C68.9233 30.4246 68.9363 30.4246 68.9363 30.4364C68.9476 30.4364 68.9487 30.4364 68.9487 30.4454L68.9363 30.638ZM68.9233 30.5431H68.9109H68.9233ZM69.0379 30.4364C69.0509 30.4246 69.0509 30.4246 69.0639 30.4127V30.5312C69.0509 30.5312 69.0509 30.5194 69.0379 30.5194C69.0255 30.5075 69.0255 30.5075 69.0255 30.5075V30.5194C69.0379 30.5312 69.0509 30.5313 69.0509 30.5431H69.0639H69.0509H69.0379C69.0509 30.555 69.0509 30.5787 69.0509 30.5905C69.0509 30.6024 69.0509 30.6261 69.0379 30.638V30.6261V30.638V30.6611H69.0509V30.638H69.0639C69.0763 30.638 69.1017 30.6379 69.1147 30.6492C69.2423 30.6735 69.3315 30.7322 69.2677 30.8745C69.2552 30.9219 69.2298 30.9693 69.2039 31.0162V31.0331L69.0379 30.4364ZM68.7698 31.0421V31.0049C68.7449 30.9693 68.7189 30.9219 68.7065 30.8745C68.6427 30.7322 68.7319 30.6735 68.8595 30.6492C68.8719 30.6379 68.8979 30.638 68.9109 30.638H68.9233V30.6611H68.9363V30.638V30.6261V30.638L68.7698 31.0421ZM69.0639 30.5312V30.5431V30.5312ZM69.9445 35.9518C70.0207 35.9162 70.0845 35.8575 70.1229 35.7864C70.1613 35.8101 70.2121 35.8338 70.2635 35.8338C70.3781 35.8338 70.4927 35.7627 70.5311 35.6678C70.6078 35.7508 70.7224 35.739 70.7862 35.7034C70.8884 35.6565 70.9268 35.5617 70.9268 35.4906C70.9398 35.5019 70.9398 35.5493 70.9522 35.5736C70.9652 35.6204 71.0036 35.6565 71.0544 35.6678C71.016 35.5617 71.1182 35.5617 71.1441 35.4669C71.169 35.3602 71.1182 35.2896 71.029 35.2422C71.0928 35.2066 71.1182 35.1473 71.0798 35.0644C71.0674 34.9932 70.9776 34.9577 70.9144 34.9695C70.9776 35.0169 70.9398 35.0999 70.876 35.0881C70.7862 35.0881 70.697 34.9932 70.5948 34.9339C70.4673 34.8628 70.3781 34.8628 70.2505 34.768C70.3397 34.768 70.4035 34.7923 70.4419 34.851C70.4543 34.733 70.3527 34.6856 70.2759 34.6381C70.1353 34.5433 70.2889 34.3305 70.4035 34.2949C70.5565 34.2594 70.6716 34.3542 70.6586 34.4609C70.6332 34.5907 70.5057 34.5557 70.4543 34.5314C70.4543 34.6026 70.5186 34.65 70.544 34.65L70.5452 34.6506L70.5463 34.6511H70.5469L70.548 34.6523H70.5491L70.5497 34.6528L70.5514 34.6534L70.5525 34.6539L70.5542 34.6545L70.5559 34.6551H70.5565L70.557 34.6556L70.5593 34.6562L70.5604 34.6568L70.5621 34.6573L70.5638 34.6579L70.5649 34.6585H70.5655L70.5672 34.659L70.5677 34.6596H70.5689L70.5706 34.6602H70.5723L70.5734 34.6607L70.574 34.6613H70.5757L70.5774 34.6619L70.579 34.6624H70.5796L70.5807 34.663L70.5824 34.6636H70.5841L70.5853 34.6641H70.5864H70.5881L70.5886 34.6647L70.5898 34.6652L70.5937 34.6658H70.5943H70.5954L70.5988 34.6664L70.6011 34.6669L70.6028 34.6675H70.6067L70.6078 34.6681H70.6084H70.6107L70.614 34.6686H70.6146H70.6163H70.6174H70.618L70.6203 34.6692H70.6208H70.6219H70.6242H70.6259H70.6276H70.6282H70.6298H70.6321H70.6344H70.6361H70.6377H70.6383H70.64H70.6411H70.6423H70.644H70.6451H70.6462L70.6485 34.6686H70.6502H70.6519H70.6524H70.6541L70.6564 34.6681H70.6581H70.6586L70.6603 34.6675C70.6541 34.681 70.6468 34.6968 70.6468 34.7087C70.6344 34.7324 70.583 34.768 70.583 34.8036C70.5706 34.8273 70.583 34.8385 70.596 34.851C70.6598 34.886 70.7365 34.8628 70.8128 34.8628C70.8511 34.8628 70.9279 34.8628 70.9663 34.8628C71.1317 34.8747 71.2599 34.9458 71.3874 35.0282C71.4128 35.0401 71.4766 35.0875 71.5274 35.1112C71.6048 35.3054 71.681 35.2416 71.6934 35.2416C71.7318 35.2179 71.7572 35.2055 71.7832 35.1823C71.821 35.1823 71.8718 35.1705 71.8718 35.1112C71.9361 35.1112 71.987 35.0756 71.974 35.0045C71.9999 34.9932 72.0253 34.9808 72.0253 34.9334C72.0383 34.886 71.974 34.8273 71.9486 34.7917C71.9068 34.7623 71.8424 34.6878 71.7832 34.685C71.7702 34.6613 71.7318 34.6613 71.7064 34.6731C71.655 34.6263 71.5918 34.6494 71.5658 34.7324C71.5404 34.8036 71.4253 34.8385 71.3745 34.8273C71.2977 34.8154 71.1577 34.768 71.0933 34.7443C71.0414 34.7149 71.0149 34.7019 70.9855 34.685V34.6844V34.6833V34.6827V34.6822V34.681V34.6805L70.9849 34.6793V34.6777V34.6765V34.6754V34.6748V34.6737V34.6698V34.6692V34.6681V34.6675V34.6664V34.6641V34.6636V34.6624L70.9855 34.6619V34.6607V34.6602V34.659V34.6585V34.6573V34.6568V34.6562V34.6551V34.6545V34.6534L70.9861 34.6517V34.6506V34.65V34.6489V34.6477L70.9866 34.646V34.6449V34.6444V34.6432V34.6427V34.6421V34.641V34.6404L70.9872 34.6393V34.6381V34.6376V34.6364L70.9878 34.6359V34.6353V34.6342V34.6325V34.6314L70.9883 34.6308V34.6302V34.6291V34.6274L70.9889 34.6263V34.6252V34.624V34.6229V34.6223L70.9894 34.6212V34.6201V34.6195V34.619V34.6184V34.6178V34.6167L70.99 34.6156V34.6144V34.6139V34.6133V34.6127V34.6122V34.6116V34.611L70.9906 34.6105V34.6099V34.6093V34.6088V34.6082V34.6071V34.6065V34.606V34.6054V34.6048V34.6043V34.6037V34.6026C71.0036 34.6263 71.029 34.6382 71.0544 34.65C71.0674 34.6382 71.0674 34.6263 71.0674 34.6026C71.1057 34.65 71.1565 34.6737 71.2203 34.6737C71.182 34.6381 71.1565 34.567 71.182 34.4959C71.2333 34.5789 71.4247 34.5907 71.4625 34.4485C71.3863 34.484 71.3355 34.4485 71.3225 34.4135C71.3095 34.3542 71.3733 34.2119 71.3095 34.1058C71.2587 34.0347 71.2074 33.9754 71.0674 33.9635C71.0798 33.9517 71.0798 33.928 71.0798 33.9043C70.9652 33.9517 70.85 33.928 70.7992 33.8218C70.8246 33.8331 70.863 33.845 70.9014 33.845C70.7862 33.762 70.7992 33.5255 70.876 33.3956C70.8884 33.3956 70.8884 33.3838 70.9014 33.3838C70.9268 33.4306 70.9906 33.4306 71.029 33.4662C71.042 33.4549 71.0544 33.4549 71.0674 33.4425C71.0674 33.4425 71.0674 33.6322 71.0798 33.7152C71.1057 33.7976 71.1949 33.7863 71.2457 33.8331C71.2971 33.7744 71.3987 33.7744 71.3863 33.6796C71.3733 33.5729 71.3479 33.4899 71.3479 33.4193C71.3733 33.4781 71.4371 33.7033 71.4625 33.7744C71.5009 33.8693 71.6031 33.845 71.6545 33.8806C71.6923 33.8094 71.782 33.7976 71.7436 33.6914C71.7436 33.6677 71.5907 33.3719 71.5647 33.3126C71.6161 33.3838 71.7691 33.644 71.8074 33.7152C71.8588 33.7976 71.948 33.762 72.0242 33.7744C72.0372 33.727 72.1264 33.6559 72.0626 33.561C71.9734 33.4425 71.782 33.2178 71.7691 33.1823C71.8074 33.2178 72.114 33.561 72.1394 33.5847C72.2032 33.644 72.3054 33.5966 72.3686 33.5966C72.3686 33.5373 72.4199 33.4549 72.3437 33.3838C72.267 33.3245 72.101 33.2178 72.0756 33.1823C72.1772 33.2415 72.3053 33.3601 72.3816 33.3838C72.5221 33.4075 72.5729 33.3601 72.6243 33.3364C72.5729 33.2297 72.6367 33.1704 72.3437 33.0637C72.5983 33.1467 72.7135 33.0993 72.7903 33.0406C72.7643 32.9457 72.6751 32.8864 72.5983 32.8627C72.7519 32.8627 72.8535 32.8035 72.9179 32.721C72.8665 32.6499 72.7519 32.5906 72.6243 32.5788C72.8157 32.5551 72.9687 32.4484 72.9816 32.3185C72.9049 32.283 72.7773 32.2711 72.6621 32.2711C72.8535 32.2118 72.9941 32.0814 72.9941 31.9516C72.8919 31.9279 72.7903 31.9397 72.6881 31.9634C72.7903 31.8923 72.9433 31.7738 72.9303 31.5965C72.8411 31.5728 72.6621 31.6321 72.5859 31.6676C72.8287 31.5372 72.9049 31.2651 72.7773 31.0992C72.7135 31.1347 72.3816 31.4548 72.3302 31.4898C72.4967 31.3007 72.5859 31.1821 72.6243 31.0523C72.6751 30.9219 72.6881 30.6967 72.5091 30.6137C72.4324 30.7915 72.1394 31.2414 71.9734 31.4305C71.9604 31.4193 71.948 31.4074 71.922 31.395C71.8837 31.5135 71.7691 31.6676 71.6669 31.7388C71.6544 31.7269 71.6545 31.7026 71.6291 31.6676C71.5269 31.8212 71.2333 32.0346 71.1441 32.1644C71.0674 32.2593 71.0674 32.3422 71.169 32.4365C71.2074 32.4721 71.2841 32.5432 71.2203 32.6262C71.1182 32.7797 70.876 32.7684 70.7992 32.6499C70.9522 32.6262 71.0036 32.4484 70.9014 32.3541C70.863 32.4252 70.7738 32.4484 70.697 32.4134C70.6332 32.4015 70.5948 32.3659 70.5695 32.3422C70.697 32.3778 70.7992 32.3185 70.7862 32.2C70.684 32.2711 70.5824 32.2 70.5695 32.1763C70.4927 32.1051 70.4803 32.0346 70.5057 31.916C70.5311 31.8093 70.6462 31.6558 70.7224 31.5965C70.7224 31.6084 70.7478 31.6321 70.7862 31.6202C70.7992 31.6202 70.8376 31.5965 70.863 31.5965C70.9398 31.5728 71.016 31.5965 71.0544 31.6202L71.0583 31.6225L71.0623 31.6247C71.143 31.6705 71.1311 31.7162 71.1311 31.7619C71.2711 31.6913 71.2203 31.5728 71.0544 31.5372C71.169 31.5372 71.2587 31.6321 71.2841 31.6439C71.3479 31.6914 71.4501 31.6795 71.5009 31.6558C71.6031 31.6084 71.6291 31.5017 71.6031 31.478C71.5907 31.5135 71.5523 31.5491 71.4885 31.5491C71.3987 31.5609 71.3225 31.5254 71.2457 31.5017C71.1949 31.478 71.1057 31.4661 71.042 31.4661C71.1565 31.4074 71.3355 31.4193 71.3987 31.5017C71.4371 31.478 71.4625 31.4548 71.4755 31.3831C71.5009 31.2296 71.3733 31.1466 71.2203 31.1466C71.2311 31.1172 71.2068 31.0963 71.1769 31.0963H71.1763C71.1712 31.0963 71.1656 31.0969 71.1599 31.098L71.1582 31.0986L71.1565 31.0992C71.1565 31.0755 71.1441 31.0523 71.1311 31.0523H70.544C70.4419 31.0523 70.2375 31.0523 70.2121 31.028C70.2121 31.0879 70.3657 31.1703 70.4673 31.1821C70.3911 31.194 70.3143 31.1822 70.2505 31.1584C70.2759 31.2059 70.3273 31.2414 70.3911 31.2651C70.3143 31.3475 70.1743 31.395 70.0331 31.3831C70.0721 31.4193 70.1353 31.4424 70.1867 31.4424C70.0721 31.6084 69.9699 31.7975 69.9445 32.0464C69.9185 31.7975 69.8164 31.6084 69.7018 31.4424C69.7526 31.4424 69.8164 31.4193 69.8548 31.3831C69.7148 31.395 69.5742 31.3475 69.4974 31.2651C69.5612 31.2414 69.6126 31.2059 69.638 31.1584C69.5742 31.1822 69.4974 31.194 69.4212 31.1821C69.5228 31.1703 69.6764 31.0879 69.6764 31.028C69.651 31.0523 69.4466 31.0523 69.3444 31.0523H68.7573C68.7449 31.0523 68.7319 31.0755 68.7319 31.0992L68.7302 31.0986L68.7285 31.098C68.7229 31.0969 68.7173 31.0963 68.7122 31.0963H68.7116C68.6817 31.0963 68.6574 31.1172 68.6681 31.1466C68.5152 31.1466 68.3876 31.2296 68.413 31.3831C68.4254 31.4548 68.4514 31.478 68.4898 31.5017C68.553 31.4193 68.7319 31.4074 68.8465 31.4661C68.7827 31.4661 68.6935 31.478 68.6427 31.5017C68.566 31.5254 68.4898 31.5609 68.4 31.5491C68.3362 31.5491 68.2978 31.5135 68.2854 31.478C68.2594 31.5017 68.2854 31.6084 68.3876 31.6558C68.4384 31.6795 68.5406 31.6914 68.6043 31.6439C68.6298 31.6321 68.7189 31.5372 68.8341 31.5372C68.6681 31.5728 68.6168 31.6913 68.7573 31.7619C68.7573 31.7162 68.7455 31.6705 68.8262 31.6247L68.8296 31.6225L68.8341 31.6202C68.8719 31.5965 68.9487 31.5728 69.0255 31.5965C69.0509 31.5965 69.0893 31.6202 69.1017 31.6202C69.1401 31.6321 69.166 31.6084 69.166 31.5965C69.2423 31.6558 69.3574 31.8093 69.3828 31.916C69.4082 32.0346 69.3828 32.1051 69.319 32.1763C69.306 32.2 69.2039 32.2711 69.1017 32.2C69.0893 32.3185 69.1915 32.3778 69.319 32.3422C69.2931 32.3659 69.2552 32.4015 69.1915 32.4134C69.1147 32.4484 69.0255 32.4252 68.9871 32.3541C68.8849 32.4484 68.9363 32.6262 69.0893 32.6499C69.0125 32.7684 68.7698 32.7797 68.6681 32.6262C68.6043 32.5432 68.6806 32.4721 68.7189 32.4365C68.8211 32.3422 68.8211 32.2593 68.7449 32.1644C68.6552 32.0346 68.3616 31.8212 68.2594 31.6676C68.234 31.7026 68.234 31.7269 68.2216 31.7388C68.1194 31.6676 68.0043 31.5135 67.9664 31.395C67.9405 31.4074 67.9281 31.4193 67.9151 31.4305C67.7491 31.2414 67.4556 30.7915 67.3793 30.6137C67.2004 30.6967 67.2134 30.9219 67.2642 31.0523C67.3026 31.1821 67.3918 31.3007 67.5577 31.4898C67.5069 31.4548 67.175 31.1347 67.1112 31.0992C66.9836 31.2651 67.0604 31.5372 67.3026 31.6676C67.2258 31.6321 67.0474 31.5728 66.9582 31.5965C66.9452 31.7738 67.0982 31.8923 67.2004 31.9634C67.0982 31.9397 66.996 31.9279 66.8939 31.9516C66.8939 32.0814 67.0344 32.2118 67.2258 32.2711C67.1112 32.2711 66.9836 32.283 66.9068 32.3185C66.9198 32.4484 67.0728 32.5551 67.2642 32.5788C67.1366 32.5906 67.022 32.6499 66.9706 32.721C67.0344 32.8035 67.1366 32.8627 67.2896 32.8627C67.2134 32.8864 67.1236 32.9457 67.0982 33.0406C67.175 33.0993 67.2896 33.1467 67.5453 33.0637C67.2518 33.1704 67.3155 33.2297 67.2642 33.3364C67.3155 33.3601 67.3664 33.4075 67.5069 33.3838C67.5837 33.3601 67.7107 33.2415 67.8129 33.1823C67.7875 33.2178 67.6215 33.3245 67.5453 33.3838C67.4685 33.4549 67.5193 33.5373 67.5193 33.5966C67.5837 33.5966 67.6853 33.644 67.7491 33.5847C67.7751 33.561 68.081 33.2178 68.1194 33.1823C68.1064 33.2178 67.9151 33.4425 67.8259 33.561C67.7621 33.6559 67.8513 33.727 67.8643 33.7744C67.9405 33.762 68.0302 33.7976 68.081 33.7152C68.1194 33.644 68.2724 33.3838 68.3232 33.3126C68.2978 33.3719 68.1448 33.6677 68.1448 33.6914C68.1064 33.7976 68.1962 33.8094 68.234 33.8806C68.2854 33.845 68.3876 33.8693 68.4254 33.7744C68.4514 33.7033 68.5152 33.4781 68.5406 33.4193C68.5406 33.4899 68.5152 33.5729 68.5022 33.6796C68.4898 33.7744 68.5914 33.7744 68.6427 33.8331C68.6935 33.7863 68.7827 33.7976 68.8081 33.7152C68.8211 33.6322 68.8211 33.4425 68.8211 33.4425C68.8341 33.4549 68.8465 33.4549 68.8595 33.4662C68.8979 33.4306 68.9617 33.4306 68.9871 33.3838C68.9995 33.3838 68.9995 33.3956 69.0125 33.3956C69.0893 33.5255 69.1017 33.762 68.9871 33.845C69.0255 33.845 69.0639 33.8331 69.0893 33.8218C69.0379 33.928 68.9233 33.9517 68.8081 33.9043C68.8081 33.928 68.8081 33.9517 68.8211 33.9635C68.6806 33.9754 68.6298 34.0347 68.5784 34.1058C68.5152 34.2119 68.5784 34.3542 68.566 34.4135C68.553 34.4485 68.5022 34.484 68.4254 34.4485C68.4638 34.5907 68.6552 34.5789 68.7065 34.4959C68.7319 34.567 68.7065 34.6381 68.6681 34.6737C68.7319 34.6737 68.7827 34.65 68.8211 34.6026C68.8211 34.6263 68.8211 34.6382 68.8341 34.65C68.8595 34.6382 68.8849 34.6263 68.8979 34.6026V34.6037V34.6043V34.6048V34.6054V34.606V34.6065V34.6071V34.6082V34.6088V34.6093V34.6099V34.6105V34.611V34.6116L68.8985 34.6127V34.6139V34.615V34.6156V34.6161L68.899 34.6167V34.6173V34.6178V34.6184V34.619V34.6195V34.6207V34.6212V34.6218L68.8996 34.6229V34.624V34.6252V34.6263H68.9002V34.6274V34.628V34.6291V34.6302V34.6308L68.9007 34.6319V34.6325V34.6331V34.6342V34.6359L68.9013 34.637V34.6376V34.6381V34.6393V34.6398V34.641H68.9018V34.6427V34.6444V34.6455V34.646V34.6466L68.9024 34.6477V34.6483V34.6494V34.65V34.6511V34.6517V34.6523L68.903 34.6534V34.6539V34.6551V34.6568V34.6585V34.6596V34.6607V34.6613V34.6624V34.6641L68.9035 34.6652V34.6664V34.6669V34.6681V34.6686V34.6698V34.6714V34.6726V34.6737V34.6743V34.6754V34.676V34.6777L68.903 34.6788V34.6793V34.6805V34.681V34.6816V34.6827V34.6833V34.6844V34.6861C68.8742 34.7025 68.8477 34.716 68.7957 34.7448C68.7319 34.768 68.5914 34.8154 68.5152 34.8278C68.4638 34.8397 68.3492 34.8041 68.3232 34.733C68.2978 34.65 68.234 34.6263 68.1832 34.6737C68.1572 34.6619 68.1194 34.6618 68.1064 34.6856C68.0472 34.6884 67.9822 34.7623 67.9405 34.7923C67.9151 34.8278 67.8513 34.8865 67.8643 34.9339C67.8643 34.9814 67.8897 34.9932 67.9151 35.0051C67.9021 35.0762 67.9535 35.1118 68.0173 35.1118C68.0173 35.1711 68.0681 35.1823 68.1064 35.1823C68.1318 35.2066 68.1572 35.2179 68.1962 35.2422C68.2086 35.2422 68.2843 35.306 68.3616 35.1118C68.413 35.0881 68.4768 35.0406 68.5022 35.0288C68.6298 34.9458 68.7573 34.8752 68.9233 34.8628C68.9617 34.8628 69.0379 34.8628 69.0763 34.8628C69.1531 34.8628 69.2298 34.8865 69.2931 34.851C69.3061 34.8397 69.319 34.8278 69.3061 34.8041C69.3061 34.768 69.2552 34.733 69.2423 34.7093C69.2423 34.6968 69.2355 34.6816 69.2287 34.6675L69.2298 34.6681H69.231H69.2327H69.2332L69.2349 34.6686H69.2366H69.2389H69.24L69.2406 34.6692H69.2428H69.244H69.2445H69.2468H69.2473H69.249H69.2507H69.253H69.2541H69.2547H69.2569H69.2575H69.2586H69.2609H69.2631H69.2643H69.2648H69.2671H69.2677H69.2688L69.2705 34.6686H69.271H69.2727H69.2739H69.2744H69.2761L69.2773 34.6681H69.2784H69.2801L69.2818 34.6675H69.284H69.2863L69.2874 34.6669H69.288L69.2897 34.6664H69.2902H69.2914L69.2936 34.6658H69.2953L69.297 34.6652L69.2993 34.6647H69.2998L69.301 34.6641H69.3027H69.3032L69.3044 34.6636H69.3061L69.3077 34.663L69.3089 34.6624H69.3094L69.3111 34.6619L69.3134 34.6613H69.3145L69.3151 34.6607L69.3168 34.6602H69.3179H69.3185L69.3202 34.6596H69.3207L69.3213 34.659L69.323 34.6585L69.3247 34.6579L69.3264 34.6573L69.3281 34.6568L69.3292 34.6562L69.3315 34.6556V34.6551H69.3326L69.3343 34.6545L69.336 34.6539L69.3371 34.6534L69.3388 34.6523H69.3394H69.3399L69.3416 34.6511H69.3422L69.3427 34.6506L69.3444 34.65C69.3698 34.65 69.4336 34.6026 69.4336 34.5314C69.3828 34.5557 69.2552 34.5907 69.2298 34.4609C69.2169 34.3542 69.3315 34.2594 69.4844 34.2949C69.5996 34.3305 69.7526 34.5433 69.6126 34.6381C69.5358 34.6856 69.4336 34.733 69.4466 34.851C69.4844 34.7923 69.5488 34.768 69.638 34.768C69.5104 34.8628 69.4212 34.8628 69.2931 34.9339C69.1915 34.9932 69.1017 35.0881 69.0125 35.0881C68.9487 35.0999 68.9109 35.0169 68.9741 34.9695C68.9109 34.9577 68.8211 34.9932 68.8081 35.0644C68.7698 35.1473 68.7957 35.2066 68.8595 35.2422C68.7698 35.2896 68.7189 35.3602 68.7449 35.4669C68.7698 35.5617 68.8719 35.5617 68.8341 35.6678C68.8849 35.6565 68.9233 35.6204 68.9363 35.5736C68.9487 35.5493 68.9487 35.5019 68.9617 35.4906C68.9617 35.5617 68.9995 35.6565 69.1017 35.7034C69.166 35.739 69.2806 35.7508 69.3574 35.6678C69.3952 35.7627 69.5104 35.8338 69.625 35.8338C69.6764 35.8338 69.7272 35.8101 69.7656 35.7864C69.804 35.8575 69.8677 35.9162 69.9445 35.9518ZM70.9522 30.638C70.9652 30.6261 70.9652 30.6024 70.9652 30.5905C70.9652 30.5787 70.9652 30.555 70.9522 30.5431H70.9652C70.9652 30.5313 70.9522 30.5312 70.9398 30.5194V30.5075C70.9398 30.5075 70.9398 30.5075 70.9522 30.5194C70.9522 30.5194 70.9652 30.5312 70.9776 30.5312V30.5431V30.5312V30.4127C70.9652 30.4246 70.9522 30.4246 70.9522 30.4364C70.9403 30.4364 70.9398 30.4364 70.9398 30.4454L70.9522 30.638ZM70.9652 30.5431H70.9776H70.9652ZM70.85 30.4364C70.8376 30.4246 70.8376 30.4246 70.8246 30.4127V30.5312C70.8376 30.5312 70.8376 30.5194 70.85 30.5194C70.863 30.5075 70.863 30.5075 70.863 30.5075V30.5194C70.85 30.5312 70.8376 30.5313 70.8376 30.5431H70.8246H70.8376H70.85C70.8376 30.555 70.8376 30.5787 70.8376 30.5905C70.8376 30.6024 70.8376 30.6261 70.85 30.638V30.6261V30.638V30.6611H70.8376V30.638H70.8246C70.8122 30.638 70.7862 30.6379 70.7738 30.6492C70.6462 30.6735 70.5565 30.7322 70.6208 30.8745C70.6332 30.9219 70.6586 30.9693 70.684 31.0162V31.0331L70.85 30.4364ZM71.1182 31.0421V31.0049C71.1441 30.9693 71.169 30.9219 71.182 30.8745C71.2457 30.7322 71.1565 30.6735 71.029 30.6492C71.016 30.6379 70.9906 30.638 70.9776 30.638H70.9652V30.6611H70.9522V30.638V30.6261V30.638L71.1182 31.0421ZM70.8246 30.5312V30.5431V30.5312ZM70.0292 1.46126C70.8043 1.69836 71.5794 1.82312 72.3556 1.64417C73.1301 1.46465 73.9069 1.7424 74.6825 2.0749C74.6825 2.63998 74.6825 3.20564 74.6825 3.77016C74.6825 4.33468 74.6825 4.89977 74.6825 5.46429C73.9069 5.07646 73.1358 4.89581 72.3556 5.06856C71.5845 5.23904 70.8043 5.0742 70.0292 4.85121V7.55413L72.2557 7.6422L73.65 8.84237L75.7026 9.22964V10.9339L75.1601 11.1659V11.4764H78.1431V12.212L94.1771 11.2438L96.7338 14.6135V15.9689L109.786 15.0781L110.006 29.6054L120.821 28.8806L120.762 29.9442L121.293 30.6532L121.353 42.1756L132.225 40.9941L132.959 75.6303L134.627 78.852L134.372 85.5308L137.256 102.256H138.588L134.839 79.0479L135.239 79.1111L139.203 103.428L137.953 103.678L138.003 104.378L118.955 105.078C118.887 104.584 118.559 101.204 118.166 97.7357C117.678 93.4301 116.971 89.0229 115.154 90.2287L110.205 88.9287V89.8285L109.705 89.5784L109.505 86.7287L69.9818 86.9782V86.9788H69.9445H69.9067V86.9782L30.3837 86.7287L30.1837 89.5784L29.6838 89.8285V88.9287L24.7339 90.2287C22.9168 89.0229 22.2103 93.4301 21.722 97.7357C21.3289 101.204 21.0017 104.584 20.934 105.078L1.88512 104.378L1.93496 103.678L0.685059 103.428L4.64884 79.1111L5.04931 79.0479L1.3001 102.256H2.63243L5.51657 85.5308L5.26101 78.852L6.929 75.6303L7.66349 40.9941L18.5361 42.1756L18.5952 30.6532L19.1268 29.9442L19.0679 28.8806L29.8818 29.6054L30.1026 15.0781L43.1546 15.9689V14.6135L45.7113 11.2438L61.7454 12.212V11.4764H64.7278V11.1659L64.1858 10.9339V9.22964L66.2384 8.84237L67.6328 7.6422L69.8582 7.55413V0.768593H70.0292V1.46126ZM70.0292 3.73232C70.7952 3.96942 71.5613 4.09475 72.3285 3.91523C73.094 3.73571 73.8617 4.01347 74.6289 4.34597V3.19942C73.8617 2.86692 73.094 2.58918 72.3285 2.76814C71.5613 2.94765 70.7952 2.82288 70.0292 2.58578V3.73232ZM72.5633 93.3579V94.0494H72.3629V93.6701L72.1038 94.0494H71.9023V93.3579H72.1038V93.7406L72.3641 93.3579H72.5633ZM71.1554 93.3579H71.8052V93.5289H71.5867V94.0494H71.3733V93.5289H71.1554V93.3579ZM70.9132 93.7666L71.1001 93.8236C71.0877 93.8761 71.0679 93.9196 71.0408 93.9552C71.0137 93.9902 70.9799 94.0167 70.9398 94.0348C70.8997 94.0528 70.8489 94.0619 70.7874 94.0619C70.7117 94.0619 70.6502 94.0506 70.6028 94.0291C70.5553 94.0071 70.5141 93.9687 70.4791 93.9134C70.4447 93.8586 70.4272 93.7881 70.4272 93.7022C70.4272 93.5876 70.4577 93.4996 70.5186 93.4381C70.5796 93.3765 70.666 93.346 70.7772 93.346C70.8641 93.346 70.9324 93.3635 70.9827 93.3985C71.0323 93.4341 71.0696 93.4883 71.0933 93.5611L70.9048 93.6035C70.898 93.582 70.8912 93.5668 70.8839 93.5566C70.872 93.5408 70.8579 93.5278 70.8404 93.5193C70.8229 93.5103 70.8032 93.5058 70.7823 93.5058C70.7337 93.5058 70.6965 93.5256 70.6711 93.5645C70.6513 93.5933 70.6417 93.6385 70.6417 93.7006C70.6417 93.7779 70.6536 93.8304 70.6767 93.8586C70.6999 93.8868 70.7326 93.9015 70.7744 93.9015C70.8156 93.9015 70.8466 93.8897 70.8675 93.8665C70.8884 93.844 70.9031 93.8106 70.9132 93.7666ZM70.1263 93.9354H69.883L69.8497 94.0494H69.6312L69.8909 93.3579H70.124L70.3837 94.0494H70.1602L70.1263 93.9354ZM70.0817 93.7858L70.0049 93.5368L69.9293 93.7858H70.0817ZM69.5595 94.0494H69.3456V93.5278H69.1785V93.7406C69.1785 93.8281 69.174 93.8919 69.1649 93.9331C69.1553 93.9743 69.1339 94.0043 69.0994 94.0235C69.0656 94.0427 69.0108 94.0522 68.9346 94.0522C68.9109 94.0522 68.8844 94.05 68.8544 94.0449V93.9049H68.886C68.9154 93.9049 68.9357 93.8981 68.9476 93.8857C68.9594 93.8727 68.9656 93.8496 68.9656 93.8152V93.3579H69.5595V94.0494ZM68.387 93.6243H68.501C68.6055 93.6243 68.6834 93.643 68.7336 93.6797C68.7844 93.7164 68.8098 93.7745 68.8098 93.8524C68.8098 93.9162 68.7867 93.9647 68.7404 93.9986C68.6935 94.0325 68.6275 94.0494 68.5406 94.0494H68.173V93.3579H68.7556V93.4979H68.387V93.6243ZM68.387 93.901H68.496C68.5631 93.901 68.5964 93.8767 68.5964 93.8281C68.5964 93.7858 68.5631 93.7643 68.496 93.7643H68.387V93.901ZM67.341 93.7039C67.341 93.591 67.3726 93.503 67.4352 93.4403C67.4979 93.3777 67.5854 93.346 67.6977 93.346C67.8129 93.346 67.9021 93.3771 67.9642 93.4392C68.0263 93.5007 68.0573 93.5871 68.0573 93.6983C68.0573 93.779 68.0438 93.8456 68.0167 93.897C67.9896 93.9489 67.9501 93.989 67.8987 94.0178C67.8473 94.0466 67.783 94.0613 67.7062 94.0613C67.6283 94.0613 67.5639 94.0489 67.5131 94.024C67.4618 93.9986 67.42 93.9597 67.3884 93.906C67.3568 93.8524 67.341 93.7847 67.341 93.7039ZM67.5543 93.7051C67.5543 93.7745 67.5673 93.8253 67.5933 93.8552C67.6193 93.8857 67.6548 93.9015 67.6994 93.9015C67.7452 93.9015 67.7807 93.8863 67.8061 93.8564C67.831 93.8264 67.8434 93.7728 67.8434 93.6955C67.8434 93.6306 67.8304 93.5831 67.8044 93.5527C67.7779 93.5227 67.7423 93.5075 67.6972 93.5075C67.6543 93.5075 67.6198 93.5227 67.5939 93.5538C67.5679 93.5843 67.5543 93.6345 67.5543 93.7051ZM74.1259 92.4338V93.1253H73.925V92.7454L73.6658 93.1253H73.4643V92.4338H73.6658V92.816L73.9261 92.4338H74.1259ZM73.969 92.2633C73.9628 92.3028 73.9436 92.335 73.912 92.3592C73.8804 92.3835 73.8425 92.396 73.7985 92.396C73.7556 92.396 73.7178 92.3835 73.6862 92.3592C73.654 92.3344 73.6354 92.3028 73.6292 92.2633H73.711C73.7246 92.3028 73.7528 92.3226 73.7968 92.3226C73.8442 92.3226 73.8742 92.3028 73.8871 92.2633H73.969ZM72.6322 92.7798C72.6322 92.6669 72.6638 92.5794 72.7265 92.5162C72.7891 92.453 72.8772 92.4219 72.989 92.4219C73.1041 92.4219 73.1933 92.453 73.2554 92.5145C73.3175 92.576 73.3486 92.663 73.3486 92.7742C73.3486 92.8549 73.335 92.9215 73.3079 92.9729C73.2808 93.0248 73.2413 93.0649 73.1899 93.0937C73.1386 93.1225 73.0742 93.1372 72.998 93.1372C72.9195 93.1372 72.8552 93.1247 72.8044 93.0999C72.753 93.0751 72.7112 93.0355 72.6796 92.9819C72.648 92.9277 72.6322 92.8606 72.6322 92.7798ZM72.8456 92.781C72.8456 92.851 72.8586 92.9006 72.8845 92.9311C72.9105 92.9616 72.9461 92.9774 72.9907 92.9774C73.0364 92.9774 73.072 92.9622 73.0974 92.9322C73.1222 92.9023 73.1352 92.8487 73.1352 92.7719C73.1352 92.7064 73.1216 92.659 73.0957 92.6285C73.0691 92.5986 73.0341 92.5839 72.989 92.5839C72.9455 92.5839 72.9111 92.5992 72.8851 92.6297C72.8591 92.6596 72.8456 92.7104 72.8456 92.781ZM72.5825 93.1253H72.342L72.2591 92.9464C72.2393 92.9046 72.2235 92.878 72.2128 92.8673C72.2015 92.8566 72.1862 92.8515 72.167 92.8515V93.1253H71.9537V92.4338H72.167V92.6991C72.1857 92.6985 72.1998 92.6918 72.2105 92.6793C72.2207 92.6669 72.237 92.6319 72.2591 92.5738C72.2749 92.5309 72.2912 92.4998 72.3076 92.4812C72.324 92.4626 72.3505 92.449 72.3872 92.4411C72.4239 92.4326 72.4815 92.4287 72.5605 92.4287V92.5749H72.5498C72.5131 92.5749 72.486 92.5817 72.4685 92.5952C72.4504 92.6093 72.4363 92.6314 72.425 92.6624C72.4137 92.694 72.4013 92.7166 72.3883 92.7318C72.3754 92.7476 72.3573 92.7595 72.3353 92.7685C72.3658 92.7787 72.3928 92.7962 72.416 92.8205C72.4386 92.8453 72.4629 92.8837 72.4888 92.9362L72.5825 93.1253ZM71.6629 92.8425L71.8498 92.8995C71.8374 92.952 71.8176 92.9955 71.7905 93.031C71.7634 93.066 71.7295 93.0926 71.6895 93.1106C71.6499 93.1287 71.5986 93.1377 71.537 93.1377C71.4614 93.1377 71.3999 93.1264 71.3524 93.105C71.305 93.083 71.2638 93.0446 71.2294 92.9893C71.1944 92.9345 71.1774 92.8639 71.1774 92.7781C71.1774 92.6635 71.2074 92.5755 71.2683 92.5145C71.3293 92.4524 71.4157 92.4219 71.5269 92.4219C71.6138 92.4219 71.6821 92.4394 71.7324 92.4744C71.782 92.51 71.8193 92.5642 71.8436 92.637L71.6545 92.6788C71.6482 92.6579 71.6409 92.6426 71.6341 92.6325C71.6217 92.6167 71.607 92.6037 71.5901 92.5952C71.5726 92.5862 71.5534 92.5817 71.532 92.5817C71.4834 92.5817 71.4461 92.6014 71.4207 92.6404C71.401 92.6692 71.3914 92.7143 71.3914 92.777C71.3914 92.8532 71.4032 92.9057 71.4264 92.9345C71.4495 92.9627 71.4823 92.9774 71.5246 92.9774C71.5653 92.9774 71.5963 92.9655 71.6172 92.9424C71.6381 92.9198 71.6533 92.8865 71.6629 92.8425ZM71.1182 93.2755H70.9465V93.1253H70.5045V93.2755H70.3329V92.9661H70.404C70.4441 92.8543 70.4639 92.7284 70.4639 92.5879V92.4338H71.0436V92.9661H71.1182V93.2755ZM70.8303 92.9661V92.6037H70.6581V92.6122C70.6581 92.7081 70.6423 92.8261 70.6095 92.9661H70.8303ZM69.5612 92.7798C69.5612 92.6669 69.5923 92.5794 69.6555 92.5162C69.7187 92.453 69.8062 92.4219 69.918 92.4219C70.0331 92.4219 70.1218 92.453 70.1844 92.5145C70.2465 92.576 70.2782 92.663 70.2782 92.7742C70.2782 92.8549 70.264 92.9215 70.2369 92.9729C70.2093 93.0248 70.1703 93.0649 70.119 93.0937C70.0676 93.1225 70.0038 93.1372 69.9265 93.1372C69.8486 93.1372 69.7842 93.1247 69.7328 93.0999C69.682 93.0751 69.6408 93.0355 69.6086 92.9819C69.577 92.9277 69.5612 92.8606 69.5612 92.7798ZM69.7752 92.781C69.7752 92.851 69.7881 92.9006 69.8136 92.9311C69.8395 92.9616 69.8751 92.9774 69.9197 92.9774C69.9654 92.9774 70.001 92.9622 70.0264 92.9322C70.0512 92.9023 70.0642 92.8487 70.0642 92.7719C70.0642 92.7064 70.0512 92.659 70.0247 92.6285C69.9987 92.5986 69.9626 92.5839 69.918 92.5839C69.8745 92.5839 69.8401 92.5992 69.8141 92.6297C69.7881 92.6596 69.7752 92.7104 69.7752 92.781ZM69.4912 92.6037H69.157V93.1253H68.9436V92.4338H69.4912V92.6037ZM68.1115 92.7798C68.1115 92.6669 68.1437 92.5794 68.2064 92.5162C68.269 92.453 68.3565 92.4219 68.4689 92.4219C68.584 92.4219 68.6727 92.453 68.7353 92.5145C68.7974 92.576 68.8285 92.663 68.8285 92.7742C68.8285 92.8549 68.8149 92.9215 68.7878 92.9729C68.7607 93.0248 68.7212 93.0649 68.6698 93.0937C68.6185 93.1225 68.5541 93.1372 68.4773 93.1372C68.3994 93.1372 68.3351 93.1247 68.2837 93.0999C68.2329 93.0751 68.1911 93.0355 68.1595 92.9819C68.1279 92.9277 68.1115 92.8606 68.1115 92.7798ZM68.3255 92.781C68.3255 92.851 68.3385 92.9006 68.3644 92.9311C68.3904 92.9616 68.426 92.9774 68.4706 92.9774C68.5163 92.9774 68.5518 92.9622 68.5767 92.9322C68.6021 92.9023 68.6145 92.8487 68.6145 92.7719C68.6145 92.7064 68.6015 92.659 68.5756 92.6285C68.549 92.5986 68.5135 92.5839 68.4683 92.5839C68.4254 92.5839 68.391 92.5992 68.3644 92.6297C68.3385 92.6596 68.3255 92.7104 68.3255 92.781ZM67.9975 93.1253H67.7835V92.6037H67.6164V92.816C67.6164 92.904 67.6119 92.9678 67.6029 93.009C67.5933 93.0497 67.5718 93.0801 67.5374 93.0993C67.5035 93.1185 67.4482 93.1281 67.3726 93.1281C67.3489 93.1281 67.3223 93.1253 67.2918 93.1202V92.9802H67.324C67.3534 92.9802 67.3737 92.974 67.3856 92.961C67.3974 92.9486 67.4031 92.9255 67.4031 92.891V92.4338H67.9975V93.1253ZM66.5297 92.7798C66.5297 92.6669 66.5613 92.5794 66.6246 92.5162C66.6872 92.453 66.7747 92.4219 66.8871 92.4219C67.0022 92.4219 67.0914 92.453 67.1535 92.5145C67.2156 92.576 67.2467 92.663 67.2467 92.7742C67.2467 92.8549 67.2331 92.9215 67.206 92.9729C67.1789 93.0248 67.1394 93.0649 67.088 93.0937C67.0367 93.1225 66.9723 93.1372 66.8961 93.1372C66.8176 93.1372 66.7533 93.1247 66.7025 93.0999C66.6511 93.0751 66.6099 93.0355 66.5777 92.9819C66.5461 92.9277 66.5297 92.8606 66.5297 92.7798ZM66.7437 92.781C66.7437 92.851 66.7567 92.9006 66.7826 92.9311C66.8086 92.9616 66.8442 92.9774 66.8888 92.9774C66.9345 92.9774 66.9701 92.9622 66.9955 92.9322C67.0203 92.9023 67.0333 92.8487 67.0333 92.7719C67.0333 92.7064 67.0197 92.659 66.9938 92.6285C66.9672 92.5986 66.9317 92.5839 66.8871 92.5839C66.8436 92.5839 66.8092 92.5992 66.7832 92.6297C66.7567 92.6596 66.7437 92.7104 66.7437 92.781ZM65.806 92.4338H66.2063C66.2729 92.4338 66.3242 92.4501 66.3598 92.4835C66.3954 92.5162 66.4129 92.5568 66.4129 92.606C66.4129 92.6466 66.4005 92.6816 66.3751 92.711C66.3581 92.7307 66.3333 92.7459 66.3005 92.7572C66.3502 92.7691 66.3863 92.79 66.4101 92.8188C66.4332 92.8481 66.4451 92.8848 66.4451 92.9283C66.4451 92.9644 66.4366 92.9966 66.4202 93.0254C66.4033 93.0542 66.3807 93.0762 66.3519 93.0931C66.3338 93.1033 66.3067 93.1112 66.2706 93.1157C66.2226 93.1219 66.1905 93.1253 66.1747 93.1253H65.806V92.4338ZM66.0217 92.7053H66.1148C66.1481 92.7053 66.1713 92.6991 66.1842 92.6878C66.1972 92.6759 66.2034 92.6596 66.2034 92.6381C66.2034 92.6178 66.1972 92.602 66.1842 92.5907C66.1713 92.5794 66.1481 92.5738 66.1159 92.5738H66.0217V92.7053ZM66.0217 92.9768H66.1306C66.1673 92.9768 66.1933 92.9701 66.2085 92.9571C66.2238 92.9441 66.2311 92.9266 66.2311 92.9046C66.2311 92.8843 66.2238 92.8673 66.2085 92.8555C66.1938 92.8425 66.1679 92.8363 66.1301 92.8363H66.0217V92.9768ZM74.0734 91.8557C74.0734 91.7428 74.105 91.6547 74.1677 91.5921C74.2309 91.5294 74.3184 91.4978 74.4302 91.4978C74.5454 91.4978 74.634 91.5288 74.6967 91.5904C74.7588 91.6519 74.7898 91.7389 74.7898 91.8501C74.7898 91.9308 74.7763 91.9974 74.7492 92.0488C74.7221 92.1007 74.6825 92.1408 74.6312 92.1696C74.5798 92.1984 74.516 92.213 74.4392 92.213C74.3613 92.213 74.2964 92.2006 74.245 92.1758C74.1942 92.1509 74.153 92.1114 74.1208 92.0578C74.0892 92.0042 74.0734 91.9364 74.0734 91.8557ZM74.2874 91.8568C74.2874 91.9268 74.2998 91.9765 74.3258 92.0076C74.3517 92.038 74.3873 92.0527 74.4319 92.0527C74.4776 92.0527 74.5132 92.038 74.5386 92.0081C74.5634 91.9782 74.5764 91.9246 74.5764 91.8472C74.5764 91.7823 74.5634 91.7343 74.5369 91.7044C74.5109 91.6745 74.4748 91.6598 74.4302 91.6598C74.3867 91.6598 74.3523 91.6751 74.3263 91.705C74.3004 91.7355 74.2874 91.7863 74.2874 91.8568ZM73.3491 91.5097H73.7494C73.816 91.5097 73.8674 91.526 73.9029 91.5588C73.9385 91.5921 73.9566 91.6327 73.9566 91.6818C73.9566 91.7225 73.9436 91.7575 73.9182 91.7868C73.9012 91.8066 73.8764 91.8218 73.8437 91.8331C73.8933 91.845 73.93 91.8659 73.9532 91.8947C73.9769 91.924 73.9882 91.9601 73.9882 92.0047C73.9882 92.0403 73.9803 92.0725 73.9633 92.1013C73.947 92.1301 73.9244 92.1521 73.895 92.169C73.877 92.1792 73.8499 92.1871 73.8137 92.1916C73.7658 92.1978 73.7336 92.2012 73.7183 92.2012H73.3491V91.5097ZM73.5648 91.7806H73.6574C73.6912 91.7806 73.7144 91.775 73.7274 91.7637C73.7404 91.7518 73.7466 91.7355 73.7466 91.714C73.7466 91.6937 73.7404 91.6779 73.7274 91.6666C73.7144 91.6553 73.6912 91.6497 73.6591 91.6497H73.5648V91.7806ZM73.5648 92.0527H73.6737C73.7104 92.0527 73.7364 92.046 73.7516 92.033C73.7669 92.02 73.7742 92.0025 73.7742 91.9805C73.7742 91.9601 73.7669 91.9432 73.7516 91.9308C73.737 91.9189 73.7104 91.9122 73.6732 91.9122H73.5648V92.0527ZM72.6023 91.5097H73.2521V91.6801H73.0341V92.2012H72.8202V91.6801H72.6023V91.5097ZM72.3601 91.9184L72.547 91.9754C72.5345 92.0279 72.5148 92.0713 72.4877 92.1069C72.4606 92.1419 72.4273 92.1685 72.3872 92.1865C72.3466 92.2046 72.2958 92.213 72.2342 92.213C72.1591 92.213 72.0976 92.2023 72.0502 92.1809C72.0022 92.1588 71.961 92.1205 71.926 92.0651C71.8921 92.0104 71.8746 91.9398 71.8746 91.854C71.8746 91.7394 71.9051 91.6513 71.9661 91.5904C72.0265 91.5288 72.1128 91.4978 72.2241 91.4978C72.3116 91.4978 72.3799 91.5153 72.4295 91.5509C72.4798 91.5859 72.5165 91.6401 72.5407 91.7129L72.3522 91.7547C72.3454 91.7338 72.3387 91.7185 72.3313 91.7084C72.3195 91.6926 72.3048 91.6796 72.2873 91.6711C72.2698 91.6621 72.2506 91.6576 72.2291 91.6576C72.1812 91.6576 72.1439 91.6773 72.1179 91.7163C72.0987 91.7451 72.0886 91.7902 72.0886 91.8523C72.0886 91.9291 72.1004 91.9816 72.1236 92.0104C72.1467 92.0386 72.1795 92.0527 72.2218 92.0527C72.2624 92.0527 72.2935 92.0414 72.3144 92.0189C72.3353 91.9957 72.3505 91.9624 72.3601 91.9184ZM71.366 91.7761H71.48C71.585 91.7761 71.6624 91.7947 71.7132 91.8314C71.764 91.8687 71.7894 91.9257 71.7894 92.0042C71.7894 92.068 71.7657 92.1165 71.7194 92.1504C71.6731 92.1843 71.6065 92.2012 71.5201 92.2012H71.1526V91.5097H71.366V91.7761ZM71.366 92.0527H71.4755C71.5421 92.0527 71.576 92.0284 71.576 91.9799C71.576 91.9376 71.5421 91.9161 71.4755 91.9161H71.366V92.0527ZM71.0103 92.2012H70.7964V91.6796H70.6298V91.8918C70.6298 91.9793 70.6248 92.0437 70.6157 92.0849C70.6061 92.1261 70.5847 92.156 70.5508 92.1752C70.5164 92.1944 70.4616 92.204 70.3848 92.204C70.3617 92.204 70.3352 92.2012 70.3053 92.1967V92.0567H70.3369C70.3657 92.0567 70.3865 92.0499 70.3984 92.0369C70.4102 92.0245 70.4159 92.0013 70.4159 91.9675V91.5097H71.0103V92.2012ZM69.6769 91.5097H70.2494V91.657H69.8909V91.7671H70.2234V91.9082H69.8909V92.0443H70.2601V92.2012H69.6769V91.5097ZM68.9312 91.5097H69.5804V91.6801H69.3625V92.2012H69.1485V91.6801H68.9312V91.5097ZM68.8364 91.5097V92.2012H68.6354V91.8213L68.3763 92.2012H68.1753V91.5097H68.3763V91.8918L68.6371 91.5097H68.8364ZM67.4234 91.5097H67.8236C67.8902 91.5097 67.9416 91.526 67.9772 91.5588C68.0127 91.5921 68.0308 91.6327 68.0308 91.6818C68.0308 91.7225 68.0178 91.7575 67.9924 91.7868C67.9755 91.8066 67.9506 91.8218 67.9179 91.8331C67.9676 91.845 68.0043 91.8659 68.028 91.8947C68.0511 91.924 68.063 91.9601 68.063 92.0047C68.063 92.0403 68.0545 92.0725 68.0381 92.1013C68.0212 92.1301 67.9981 92.1521 67.9693 92.169C67.9518 92.1792 67.9247 92.1871 67.888 92.1916C67.84 92.1978 67.8084 92.2012 67.792 92.2012H67.4234V91.5097ZM67.639 91.7806H67.7322C67.7655 91.7806 67.7886 91.775 67.8016 91.7637C67.8146 91.7518 67.8214 91.7355 67.8214 91.714C67.8214 91.6937 67.8146 91.6779 67.8016 91.6666C67.7886 91.6553 67.766 91.6497 67.7333 91.6497H67.639V91.7806ZM67.639 92.0527H67.748C67.7852 92.0527 67.8112 92.046 67.8259 92.033C67.8411 92.02 67.8484 92.0025 67.8484 91.9805C67.8484 91.9601 67.8411 91.9432 67.8264 91.9308C67.8112 91.9189 67.7852 91.9122 67.748 91.9122H67.639V92.0527ZM67.0971 92.0872H66.8538L66.8205 92.2012H66.602L66.8617 91.5097H67.0948L67.3545 92.2012H67.131L67.0971 92.0872ZM67.0525 91.9376L66.9757 91.6886L66.9001 91.9376H67.0525ZM65.9731 91.5097H66.3282C66.4055 91.5097 66.4637 91.5277 66.5021 91.565C66.5405 91.6011 66.5597 91.6542 66.5597 91.7219C66.5597 91.7919 66.5388 91.8461 66.497 91.8856C66.4547 91.9251 66.3909 91.9443 66.3045 91.9443H66.1876V92.2012H65.9731V91.5097ZM66.1876 91.8043H66.2401C66.2813 91.8043 66.3101 91.7976 66.3265 91.7829C66.3434 91.7688 66.3513 91.7501 66.3513 91.7281C66.3513 91.7061 66.3446 91.688 66.3299 91.6728C66.3158 91.6576 66.2887 91.6502 66.2486 91.6502H66.1876V91.8043ZM65.8314 92.2012H65.6186V91.6796H65.3832V92.2012H65.1698V91.5097H65.8314V92.2012ZM70.1952 98.5385H71.2678V100.15H70.1952V98.5385ZM70.1952 103.422H71.2678V104.277H70.1952V103.422ZM70.1952 100.614H71.2678V103.032H70.1952V100.614ZM69.7486 98.5385H68.6207V100.15H69.7486V98.5385ZM69.7486 103.422H68.6207V104.277H69.7486V103.422ZM69.7486 100.614H68.6207V103.032H69.7486V100.614ZM69.9242 106.064H81.1717L81.3896 106.287H58.4989L58.7168 106.064H69.5386H69.9242ZM69.9242 105.67H80.8358L81.047 105.893H58.8415L59.0532 105.67H69.6086H69.9242ZM69.9242 105.276H80.5332L80.7387 105.499H59.1498L59.3552 105.276H69.4167H69.9242ZM69.8819 78.629H70.6569V83.4291H69.2315V78.629H69.8819ZM69.8819 72.3792H70.6569V77.1793H69.2315V72.3792H69.8819ZM69.8819 66.1299H70.6569V70.9295H69.2315V66.1299H69.8819ZM69.8819 59.8801H70.6569V64.6797H69.2315V59.8801H69.8819ZM69.8819 53.6303H70.6569V58.4304H69.2315V53.6303H69.8819ZM69.8819 47.3811H70.6569V52.1806H69.2315V47.3811H69.8819ZM69.9502 7.95947H67.5532L67.5137 8.87964L64.5731 9.42326V10.624L65.2313 10.9729V11.941L65.4577 11.8801V10.353H65.9675V11.7864L66.2384 11.7474V10.353H66.8967V11.7864H69.8932H69.9953H72.9912V10.353H73.65V11.7474L73.921 11.7864V10.353H74.4302V11.8801L74.6571 11.941V10.9729L75.3154 10.624V9.42326L72.3748 8.87964L72.3347 7.95947H69.9502ZM5.62772 46.6675L4.64884 79.1111L5.06184 79.0445L5.40123 78.3129L6.11021 45.6723L5.62772 46.6675ZM7.11952 43.5903L6.44514 76.061L6.71928 75.4699L7.38214 43.0489L7.11952 43.5903ZM6.69743 44.4608L6.0169 76.9845L6.29148 76.3924L6.96095 43.9177L6.69743 44.4608ZM6.27579 45.3307L5.58848 77.9092L5.86324 77.3165L6.53976 44.7865L6.27579 45.3307ZM15.7736 34.5834L15.5827 41.6777L16.2879 41.7172L16.4908 33.5881L15.7736 34.5834ZM17.9912 31.5062L17.7689 41.8002L18.1589 41.8217L18.3817 30.9648L17.9912 31.5062ZM17.364 32.3767L17.1612 41.7663L17.5512 41.7878L17.7554 31.8336L17.364 32.3767ZM16.7371 33.2466L16.5536 41.7319L16.9437 41.7539L17.1294 32.7024L16.7371 33.2466ZM27.2896 21.3866L27.0987 29.2362L27.8039 29.2803L28.0068 20.2858L27.2896 21.3866ZM29.5072 17.9825L29.2849 29.3717L29.6749 29.3954L29.8977 17.383L29.5072 17.9825ZM28.88 18.945L28.6774 29.3339L29.0675 29.3582L29.2714 18.3444L28.88 18.945ZM28.2529 19.9081L28.0696 29.2967L28.4597 29.3204L28.6454 19.3052L28.2529 19.9081ZM69.9445 85.878L64.6329 85.7408V39.3875H53.841L53.8749 27.5455C53.351 27.8679 53.0129 28.7158 52.7972 29.8572V27.4845L52.7837 27.484V18.0926L58.0258 18.3263V26.6716H58.3668V18.3416L64.0825 18.5967V26.6716H64.7188V18.0994H65.1026V26.6716H66.5794V18.0994H66.9486V26.6716H68.6027V18.0994H69.0458V26.6716H69.9265H69.9615H70.8427V18.0994H71.2858V26.6716H72.9404V18.0994H73.3091V26.6716H74.7859V18.0994H75.1697V26.6716H75.8059V18.5967L81.5217 18.3416V26.6716H81.8627V18.3263L87.1048 18.0926V27.484L87.0913 27.4845V29.8572C86.8756 28.7158 86.5375 27.8679 86.0136 27.5455L86.0475 39.3875H75.255V85.7408L69.9445 85.878ZM69.9265 17.5422H69.2598V16.3172H63.3577V17.4169L62.8688 17.2859V12.173H69.8932H69.9953H77.0197V17.2859L76.5302 17.4169V16.3172H70.6287V17.5422H69.9615H69.9265ZM8.04855 73.4681L8.07718 73.3744L8.72728 42.0576L19.3315 43.089L19.2984 45.3465L16.3565 45.1427L16.2843 48.7658L19.2454 48.9713L19.206 51.6697L16.2308 51.4631L16.1585 55.0868L19.1531 55.2945L19.1134 57.9929L16.1047 57.7846L16.0325 61.4077L19.0604 61.6177L19.0212 64.3161L15.9789 64.105L15.9069 67.7287L18.9682 67.9409L18.9286 70.6393L15.8531 70.4259L15.7809 74.0496L18.8757 74.2641L18.83 77.4017L15.7185 77.1861L15.6462 80.8097L18.7769 81.0265L18.7674 81.6797L15.6334 81.4623L15.6193 82.173L18.757 82.3904L18.7422 83.3913H19.0598L19.6483 43.1201L19.6587 43.1212L19.9542 29.8262L29.8701 30.3771L31.032 30.4545L31.1868 16.0852L35.8351 16.3595L35.7775 27.0611L32.8476 27.0487V30.6724L35.7583 30.6842L35.7425 33.6745L32.8476 33.6626V37.2863L35.7233 37.2982L35.7114 39.4501H32.8727L32.8266 43.1681H35.6917L35.677 45.9478L32.9262 45.7575L32.8815 49.3806L35.6578 49.5731L35.6437 52.2721L32.8479 52.0785L32.803 55.7015L35.6239 55.8974L35.6098 58.5958L32.7695 58.3994L32.7245 62.0225L35.59 62.2212L35.5759 64.9202L32.6912 64.7203L32.6464 68.3434L35.5567 68.545L35.5421 71.2439L32.6129 71.0407L32.5679 74.6644L35.5229 74.8693L35.5059 78.0074L32.5291 77.8008L32.4841 81.4245L35.4867 81.6322L35.4834 82.2854L32.476 82.0771L32.4673 82.7878L35.4794 82.9967L35.4743 84.006H35.8187L35.9739 54.8582L36.0055 52.2969L35.9875 52.2958L36.0021 49.5968L36.0388 49.5996L36.084 45.976L36.0213 45.972L36.1788 16.3799L41.7806 16.7101V27.4783L38.8073 27.3857V31.0089L41.7806 31.102V34.0923L38.8073 33.9997V37.6228L41.7806 37.7159V39.655H38.8462L38.7999 43.373H41.7806V46.1775L38.3172 45.9619L38.3184 49.5855L41.7806 49.8006V52.4985L38.3189 52.2834L38.3201 55.9065L41.7806 56.1215V58.8188L38.3212 58.6043L38.3223 62.2274L41.7806 62.4425V65.1398L38.3235 64.9247L38.3251 68.5483L41.7806 68.7628V71.4607L38.3257 71.2462L38.3268 74.8693L41.7806 75.0838V78.2203L38.328 78.0057L38.3291 81.6294L41.7806 81.8439V82.4965L38.3297 82.2814V82.9927L41.7806 83.2072V84.3967H42.0436V16.7259L44.317 16.8597L45.9823 17.7895L46.8144 17.8267V27.4196L43.8219 27.3857V31.0089L46.8144 31.0433V34.0335L43.8219 33.9997V37.6228L46.8144 37.6572V39.8408H43.9173V43.5587H46.8144V46.3491L43.9173 46.1482V49.7712L46.8144 49.9722V52.6695L43.9173 52.4691V56.0922L46.8144 56.2932V58.9904L43.9173 58.79V62.4137L46.8144 62.6141V65.3114L43.9173 65.111V68.7341L46.8144 68.935V71.6323L43.9173 71.4319V75.055L46.8144 75.256V78.3924L43.9173 78.192V81.8151L46.8144 82.0155V82.6687L43.9173 82.4677V83.1785L46.8144 83.3794V84.3967H47.0775V83.3975V82.6868V82.0342V78.4105V75.274V71.6509V68.9531V65.33V62.6322V59.0091V56.3112V52.6881V49.9903V46.3672V43.5587V39.8408V17.838L52.4421 18.0774V27.4732L49.6365 27.3857V31.0089L52.6177 31.102C52.5195 32.0182 52.4703 33.0394 52.4489 34.0872L49.6365 33.9997V37.6228L52.4534 37.7108C52.4664 38.609 52.4816 39.4552 52.4839 40.193H49.6365V43.9115H52.537V46.7014L49.6365 46.5004V50.1235L52.537 50.325V53.0223L49.6365 52.8214V56.4444L52.537 56.6454V59.3433L49.6365 59.1423V62.7654L52.537 62.9664V65.6642L49.6365 65.4632V69.0863L52.537 69.2873V71.9851L49.6365 71.7836V75.4073L52.537 75.6082V78.7453L49.6365 78.5437V82.1674L52.537 82.3684V83.021L49.6365 82.82V83.5307L52.7972 83.7497V83.4139H52.8V41.1973H52.7972V40.193H55.2139V43.9115H57.8474V46.6828L55.2139 46.5004V50.1235L57.8474 50.3064V53.0037L55.2139 52.8214V56.4444L57.8474 56.6273V59.3246L55.2139 59.1423V62.7654L57.8474 62.9477V65.6456L55.2139 65.4632V69.0863L57.8474 69.2687V71.9665L55.2139 71.7836V75.4073L57.8474 75.5902V78.7266L55.2139 78.5437V82.1674L57.8474 82.3497V83.0023L55.2139 82.82V83.5307L57.8474 83.7131V84.7495H58.3741V83.7497V83.039V82.3864V78.7628V75.6263V72.0032V69.3054V65.6817V62.9844V59.3613V56.6635V53.0404V50.3426V46.7194V43.9115V40.193H63.8895V85.3067H29.4963L29.4035 88.6842C20.2836 88.7153 22.2253 89.2109 20.1698 102.72L3.40712 102.287L8.12239 73.3253L8.04855 73.4681ZM46.5243 12.251L61.1645 13.1028V17.247L46.5243 16.4335V12.251ZM24.9283 103.722H29.5931V103.267H63.8054V98.2241V98.022H63.9877H69.9411V98.2241H63.9877V103.267V103.375H64.2508V104.909H63.1104V104.36H52.8497V103.727H48.5853V104.36H45.0955V103.727H40.949V104.36H37.4592V103.727H33.3441V104.36H29.8077V104.916H34.2606V105.549H36.6847V104.916H41.7433V105.549H44.1984V104.916H49.2571V105.549H51.8646V104.916H58.1144V106.009H55.8253H51.8646H49.2571H44.1984H41.7433H36.6847H34.2606H31.9064H28.5517V105.001H24.9283V103.722ZM69.9293 28.5746H66.3468V36.3289C66.3468 37.0441 66.9441 37.498 67.6469 37.629C68.3814 37.7661 69.6769 37.5471 69.9293 37.9903L69.9445 38.0202L69.9592 37.9903C70.2115 37.5471 71.5071 37.7661 72.2416 37.629C72.9444 37.498 73.5416 37.0441 73.5416 36.3289V28.5746H69.9592H69.9293ZM21.5558 37.0458H24.5694L24.5586 39.0696H21.7192L21.6731 42.7876H24.5385L24.5237 45.5769L21.6409 45.3764L21.5959 49.0001L24.5041 49.2016L24.4898 51.9006L21.5626 51.698L21.5176 55.3211L24.4701 55.5254L24.4558 58.2244L21.4841 58.0183L21.4394 61.642L24.4362 61.8497L24.4219 64.5487L21.4058 64.3393L21.3609 67.9629L24.4024 68.1735L24.3879 70.8725L21.3275 70.6602L21.2826 74.2839L24.3685 74.4973L24.3517 77.636L21.2438 77.4203L21.1988 81.044L24.3323 81.2613L24.3288 81.9139L21.1906 81.696L21.1818 82.4073L24.3248 82.6252L24.3195 83.6256H24.593L24.7956 45.8518L24.7987 45.5955H24.7969L24.8119 42.7876H24.8333L24.8796 39.0696H24.8318L24.8796 30.1745H24.6062L24.5892 33.3279H21.6021L21.5558 37.0458ZM27.2751 37.2361H30.2185L30.2071 39.2599H27.3798L27.3338 42.9778H30.1866L30.1709 45.766L27.3015 45.5667L27.2568 49.1904L30.1506 49.3908L30.1357 52.0897L27.2233 51.8882L27.1783 55.5113L30.1153 55.7151L30.1004 58.4135L27.145 58.2091L27.1 61.8322L30.0803 62.0389L30.0653 64.7378L27.0665 64.5295L27.0217 68.1532L30.0448 68.3626L30.0298 71.0616L26.9882 70.8504L26.9432 74.4741L30.0097 74.6864L29.9923 77.8245L26.9044 77.6106L26.8594 81.2343L29.972 81.4499L29.9683 82.1025L26.8515 81.8863L26.8427 82.5976L29.9643 82.8138L29.9588 83.8158H30.2426L30.4508 46.4812L30.4596 45.7863L30.4547 45.7857L30.4704 42.9778H30.4942L30.5403 39.2599H30.4911L30.5403 30.4223H30.2565L30.2391 33.5181H27.3212L27.2751 37.2361ZM63.1082 89.4841V96.0444H76.7803V89.3611H76.6572H69.9456H69.9428H63.2312H63.1082V89.4841ZM69.9428 95.9214H63.2312V89.4841H76.6572V95.9214H69.9456H69.9428ZM64.3095 90.4388V95.2434H75.579V90.3157H75.4559H69.9456H69.9428H64.4325H64.3095V90.4388ZM69.9428 95.1203H64.4325V90.4388H75.4559V95.1203H69.9456H69.9428ZM65.2505 103.422H64.2982V104.277H65.2505V103.422ZM66.6912 103.422H65.7388V104.277H66.6912V103.422ZM68.1318 103.422H67.1801V104.277H68.1318V103.422ZM65.2505 100.614H64.2982V103.032H65.2505V100.614ZM66.6912 100.614H65.7388V103.032H66.6912V100.614ZM68.1318 100.614H67.1801V103.032H68.1318V100.614ZM65.2505 98.5385H64.2982V100.15H65.2505V98.5385ZM66.6912 98.5385H65.7388V100.15H66.6912V98.5385ZM68.1318 98.5385H67.1801V100.15H68.1318V98.5385ZM29.0619 103.415L29.2106 89.6083L25.6969 90.4992L25.3998 103.069L29.0619 103.415ZM36.832 97.147V101.084H37.3147V97.1537L38.674 97.1718V101.23H40.7351V97.2L40.9547 97.2034V101.23H42.2266V97.2203L43.2348 97.2339V101.23H43.7175V97.2407L44.7697 97.2548V101.332H46.8308V97.283L47.0498 97.2858V101.332H48.3217V97.3033L49.462 97.3191V101.332H49.9441V97.3253L51.304 97.344V101.332H53.3645V97.3716L53.5841 97.375V101.332H54.856V97.392L55.7767 97.4049V101.332H56.2588V97.4111L59.0656 97.4495V96.9674L29.6406 96.5666V97.0487L32.3593 97.086V101.113H34.4204V97.1142L34.6394 97.117V101.113H35.9113V97.1345L36.832 97.147ZM36.9201 89.7117H31.9209V95.2372H36.9201V89.7117ZM43.1473 89.7117H38.1479V95.2372H43.1473V89.7117ZM49.3745 89.7117H44.3751V95.2372H49.3745V89.7117ZM55.6017 89.7117H50.6023V95.2372H55.6017V89.7117ZM61.8284 89.7117H56.8296V95.2372H61.8284V89.7117ZM66.5817 78.629H65.0817V83.4291H66.5817V78.629ZM66.5817 72.3792H65.0817V77.1793H66.5817V72.3792ZM66.5817 66.1299H65.0817V70.9295H66.5817V66.1299ZM66.5817 59.8801H65.0817V64.6797H66.5817V59.8801ZM68.8318 78.629H67.3314V83.4291H68.8318V78.629ZM68.8318 72.3792H67.3314V77.1793H68.8318V72.3792ZM68.8318 66.1299H67.3314V70.9295H68.8318V66.1299ZM68.8318 59.8801H67.3314V64.6797H68.8318V59.8801ZM66.5817 53.6303H65.0817V58.4304H66.5817V53.6303ZM68.8318 53.6303H67.3314V58.4304H68.8318V53.6303ZM66.5817 47.3811H65.0817V52.1806H66.5817V47.3811ZM68.8318 47.3811H67.3314V52.1806H68.8318V47.3811ZM66.5817 40.5808H65.0817V45.8309H66.5817V40.5808ZM68.8318 40.5808H67.3314V45.8309H68.8318V40.5808ZM134.26 46.6675L135.239 79.1111L134.827 79.0445L134.487 78.3129L133.778 45.6723L134.26 46.6675ZM132.769 43.5903L133.443 76.061L133.169 75.4699L132.506 43.0489L132.769 43.5903ZM133.191 44.4608L133.871 76.9845L133.597 76.3924L132.928 43.9177L133.191 44.4608ZM133.613 45.3307L134.3 77.9092L134.025 77.3165L133.349 44.7865L133.613 45.3307ZM124.115 34.5834L124.306 41.6777L123.601 41.7172L123.397 33.5881L124.115 34.5834ZM121.897 31.5062L122.119 41.8002L121.729 41.8217L121.507 30.9648L121.897 31.5062ZM122.525 32.3767L122.727 41.7663L122.337 41.7878L122.133 31.8336L122.525 32.3767ZM123.151 33.2466L123.335 41.7319L122.945 41.7539L122.759 32.7024L123.151 33.2466ZM112.599 21.3866L112.789 29.2362L112.084 29.2803L111.882 20.2858L112.599 21.3866ZM110.381 17.9825L110.604 29.3717L110.213 29.3954L109.99 17.383L110.381 17.9825ZM111.008 18.945L111.211 29.3339L110.821 29.3582L110.617 18.3444L111.008 18.945ZM111.636 19.9081L111.818 29.2967L111.428 29.3204L111.243 19.3052L111.636 19.9081ZM131.84 73.4681L131.811 73.3744L131.161 42.0576L120.557 43.089L120.59 45.3465L123.532 45.1427L123.604 48.7658L120.643 48.9713L120.683 51.6697L123.658 51.4631L123.73 55.0868L120.735 55.2945L120.775 57.9929L123.783 57.7846L123.856 61.4077L120.828 61.6177L120.867 64.3161L123.909 64.105L123.982 67.7287L120.92 67.9409L120.96 70.6393L124.035 70.4259L124.107 74.0496L121.013 74.2641L121.058 77.4017L124.17 77.1861L124.242 80.8097L121.112 81.0265L121.121 81.6797L124.255 81.4623L124.269 82.173L121.131 82.3904L121.146 83.3913H120.829L120.24 43.1201L120.23 43.1212L119.935 29.8262L110.018 30.3771L108.856 30.4545L108.702 16.0852L104.053 16.3595L104.11 27.0611L107.041 27.0487V30.6724L104.13 30.6842L104.146 33.6745L107.041 33.6626V37.2863L104.165 37.2982L104.176 39.4501H107.016L107.062 43.1681H104.197L104.211 45.9478L106.962 45.7575L107.007 49.3806L104.231 49.5731L104.245 52.2721L107.04 52.0785L107.085 55.7015L104.264 55.8974L104.279 58.5958L107.119 58.3994L107.164 62.0225L104.298 62.2212L104.313 64.9202L107.197 64.7203L107.242 68.3434L104.332 68.545L104.346 71.2439L107.276 71.0407L107.32 74.6644L104.366 74.8693L104.382 78.0074L107.359 77.8008L107.404 81.4245L104.402 81.6322L104.405 82.2854L107.412 82.0771L107.421 82.7878L104.409 82.9967L104.414 84.006H104.07L103.915 54.8582L103.883 52.2969L103.901 52.2958L103.886 49.5968L103.849 49.5996L103.804 45.976L103.867 45.972L103.709 16.3799L98.1079 16.7101V27.4783L101.081 27.3857V31.0089L98.1079 31.102V34.0923L101.081 33.9997V37.6228L98.1079 37.7159V39.655H101.042L101.089 43.373H98.1079V46.1775L101.571 45.9619L101.57 49.5855L98.1079 49.8006V52.4985L101.57 52.2834L101.568 55.9065L98.1079 56.1215V58.8188L101.567 58.6043L101.566 62.2274L98.1079 62.4425V65.1398L101.564 64.9247L101.563 68.5483L98.1079 68.7628V71.4607L101.563 71.2462L101.562 74.8693L98.1079 75.0838V78.2203L101.561 78.0057L101.559 81.6294L98.1079 81.8439V82.4965L101.559 82.2814V82.9927L98.1079 83.2072V84.3967H97.8448V16.7259L95.5715 16.8597L93.9062 17.7895L93.0741 17.8267V27.4196L96.0666 27.3857V31.0089L93.0741 31.0433V34.0335L96.0666 33.9997V37.6228L93.0741 37.6572V39.8408H95.9712V43.5587H93.0741V46.3491L95.9712 46.1482V49.7712L93.0741 49.9722V52.6695L95.9712 52.4691V56.0922L93.0741 56.2932V58.9904L95.9712 58.79V62.4137L93.0741 62.6141V65.3114L95.9712 65.111V68.7341L93.0741 68.935V71.6323L95.9712 71.4319V75.055L93.0741 75.256V78.3924L95.9712 78.192V81.8151L93.0741 82.0155V82.6687L95.9712 82.4677V83.1785L93.0741 83.3794V84.3967H92.8104V83.3975V82.6868V82.0342V78.4105V75.274V71.6509V68.9531V65.33V62.6322V59.0091V56.3112V52.6881V49.9903V46.3672V43.5587V39.8408V17.838L87.4458 18.0774V27.4732L90.252 27.3857V31.0089L87.2708 31.102C87.369 32.0182 87.4181 33.0394 87.4396 34.0872L90.252 33.9997V37.6228L87.4351 37.7108C87.4221 38.609 87.4068 39.4552 87.4046 40.193H90.252V43.9115H87.3515V46.7014L90.252 46.5004V50.1235L87.3515 50.325V53.0223L90.252 52.8214V56.4444L87.3515 56.6454V59.3433L90.252 59.1423V62.7654L87.3515 62.9664V65.6642L90.252 65.4632V69.0863L87.3515 69.2873V71.9851L90.252 71.7836V75.4073L87.3515 75.6082V78.7453L90.252 78.5437V82.1674L87.3515 82.3684V83.021L90.252 82.82V83.5307L87.0913 83.7497V83.4139H87.0885V41.1973H87.0913V40.193H84.6746V43.9115H82.0411V46.6828L84.6746 46.5004V50.1235L82.0411 50.3064V53.0037L84.6746 52.8214V56.4444L82.0411 56.6273V59.3246L84.6746 59.1423V62.7654L82.0411 62.9477V65.6456L84.6746 65.4632V69.0863L82.0411 69.2687V71.9665L84.6746 71.7836V75.4073L82.0411 75.5902V78.7266L84.6746 78.5437V82.1674L82.0411 82.3497V83.0023L84.6746 82.82V83.5307L82.0411 83.7131V84.7495H81.5144V83.7497V83.039V82.3864V78.7628V75.6263V72.0032V69.3054V65.6817V62.9844V59.3613V56.6635V53.0404V50.3426V46.7194V43.9115V40.193H75.999V85.3067H110.392L110.485 88.6842C119.605 88.7153 117.663 89.2109 119.718 102.72L136.481 102.287L131.766 73.3253L131.84 73.4681ZM93.3637 12.251L78.7234 13.1028V17.247L93.3637 16.4335V12.251ZM114.96 103.722H110.295V103.267H76.0831V98.2241V98.022H75.9008H69.9473V98.2241H75.9008V103.267V103.375H75.6372V104.909H76.778V104.36H87.0388V103.727H91.3032V104.36H94.7936V103.727H98.9389V104.36H102.429V103.727H106.544V104.36H110.081V104.916H105.628V105.549H103.204V104.916H98.1446V105.549H95.6901V104.916H90.6314V105.549H88.0239V104.916H81.7741V106.009H84.0632H88.0239H90.6314H95.6901H98.1446H103.204H105.628H107.982H111.337V105.001H114.96V103.722ZM118.332 37.0458H115.319L115.33 39.0696H118.169L118.216 42.7876H115.35L115.365 45.5769L118.247 45.3764L118.292 49.0001L115.384 49.2016L115.399 51.9006L118.326 51.698L118.371 55.3211L115.418 55.5254L115.432 58.2244L118.404 58.0183L118.449 61.642L115.452 61.8497L115.466 64.5487L118.483 64.3393L118.527 67.9629L115.486 68.1735L115.5 70.8725L118.56 70.6602L118.606 74.2839L115.52 74.4973L115.537 77.636L118.645 77.4203L118.69 81.044L115.556 81.2613L115.559 81.9139L118.698 81.696L118.707 82.4073L115.563 82.6252L115.569 83.6256H115.295L115.093 45.8518L115.09 45.5955H115.091L115.076 42.7876H115.055L115.009 39.0696H115.057L115.009 30.1745H115.282L115.299 33.3279H118.287L118.332 37.0458ZM112.613 37.2361H109.67L109.681 39.2599H112.508L112.555 42.9778H109.702L109.718 45.766L112.587 45.5667L112.632 49.1904L109.738 49.3908L109.753 52.0897L112.665 51.8882L112.71 55.5113L109.773 55.7151L109.788 58.4135L112.743 58.2091L112.788 61.8322L109.808 62.0389L109.823 64.7378L112.822 64.5295L112.867 68.1532L109.844 68.3626L109.858 71.0616L112.901 70.8504L112.945 74.4741L109.879 74.6864L109.896 77.8245L112.984 77.6106L113.029 81.2343L109.917 81.4499L109.92 82.1025L113.037 81.8863L113.046 82.5976L109.924 82.8138L109.93 83.8158H109.646L109.438 46.4812L109.429 45.7863L109.433 45.7857L109.418 42.9778H109.394L109.348 39.2599H109.397L109.348 30.4223H109.632L109.65 33.5181H112.567L112.613 37.2361ZM74.6379 103.422H75.5903V104.277H74.6379V103.422ZM73.1967 103.422H74.1491V104.277H73.1967V103.422ZM71.7561 103.422H72.7084V104.277H71.7561V103.422ZM74.6379 100.614H75.5903V103.032H74.6379V100.614ZM73.1967 100.614H74.1491V103.032H73.1967V100.614ZM71.7561 100.614H72.7084V103.032H71.7561V100.614ZM74.6379 98.5385H75.5903V100.15H74.6379V98.5385ZM73.1967 98.5385H74.1491V100.15H73.1967V98.5385ZM71.7561 98.5385H72.7084V100.15H71.7561V98.5385ZM110.827 103.415L110.678 89.6083L114.192 90.4992L114.489 103.069L110.827 103.415ZM103.056 97.147V101.084H102.574V97.1537L101.214 97.1718V101.23H99.1534V97.2L98.9338 97.2034V101.23H97.6625V97.2203L96.6537 97.2339V101.23H96.171V97.2407L95.1188 97.2548V101.332H93.0577V97.283L92.8381 97.2858V101.332H91.5662V97.3033L90.4265 97.3191V101.332H89.9438V97.3253L88.5844 97.344V101.332H86.5234V97.3716L86.3043 97.375V101.332H85.0325V97.392L84.1117 97.4049V101.332H83.6291V97.4111L80.8223 97.4495V96.9674L110.248 96.5666V97.0487L107.529 97.086V101.113H105.468V97.1142L105.249 97.117V101.113H103.977V97.1345L103.056 97.147ZM102.968 89.7117H107.968V95.2372H102.968V89.7117ZM96.7412 89.7117H101.741V95.2372H96.7412V89.7117ZM90.514 89.7117H95.5134V95.2372H90.514V89.7117ZM84.2873 89.7117H89.2861V95.2372H84.2873V89.7117ZM78.0601 89.7117H83.0595V95.2372H78.0601V89.7117ZM73.3068 78.629H74.8067V83.4291H73.3068V78.629ZM73.3068 72.3792H74.8067V77.1793H73.3068V72.3792ZM73.3068 66.1299H74.8067V70.9295H73.3068V66.1299ZM73.3068 59.8801H74.8067V64.6797H73.3068V59.8801ZM71.0566 78.629H72.5566V83.4291H71.0566V78.629ZM71.0566 72.3792H72.5566V77.1793H71.0566V72.3792ZM71.0566 66.1299H72.5566V70.9295H71.0566V66.1299ZM71.0566 59.8801H72.5566V64.6797H71.0566V59.8801ZM73.3068 53.6303H74.8067V58.4304H73.3068V53.6303ZM71.0566 53.6303H72.5566V58.4304H71.0566V53.6303ZM73.3068 47.3811H74.8067V52.1806H73.3068V47.3811ZM71.0566 47.3811H72.5566V52.1806H71.0566V47.3811ZM73.3068 40.5808H74.8067V45.8309H73.3068V40.5808ZM71.0566 40.5808H72.5566V45.8309H71.0566V40.5808Z" fill="#231F20"></path> </svg> 