<?xml version="1.0" encoding="UTF-8"?> <svg xmlns="http://www.w3.org/2000/svg" width="49" height="61" viewBox="0 0 49 61" fill="none"> <path fill-rule="evenodd" clip-rule="evenodd" d="M24.5 0V15.25L24.5 15.416C24.4997 16.7094 24.4995 17.9663 24.6394 19.0031C24.7972 20.1718 25.1816 21.5055 26.294 22.6133C27.4063 23.7212 28.7455 24.104 29.919 24.2611C30.96 24.4005 32.2221 24.4003 33.5209 24.4L33.6875 24.4H49V42.7C49 51.3266 49 55.6399 46.309 58.32C43.618 61 39.287 61 30.625 61H18.375C9.71293 61 5.38191 61 2.69096 58.32C0 55.6399 0 51.3266 0 42.7V18.3C0 9.67329 0 5.35995 2.69096 2.67997C5.38191 0 9.71293 0 18.375 0H24.5ZM30.625 0.0140933V15.25C30.625 16.774 30.6314 17.6102 30.7098 18.1903L30.7129 18.2125L30.7353 18.2155C31.3177 18.2935 32.1572 18.3 33.6875 18.3H48.9859C48.9547 17.0445 48.8545 16.2136 48.5339 15.4423C48.0675 14.3213 47.1824 13.4398 45.412 11.6767L37.2755 3.57329C35.5051 1.81021 34.62 0.92867 33.4943 0.464335C32.7198 0.144841 31.8855 0.0451806 30.625 0.0140933ZM12.25 33.55C12.25 31.8655 13.6211 30.5 15.3125 30.5H33.6875C35.3789 30.5 36.75 31.8655 36.75 33.55C36.75 35.2345 35.3789 36.6 33.6875 36.6H15.3125C13.6211 36.6 12.25 35.2345 12.25 33.55ZM15.3125 42.7C13.6211 42.7 12.25 44.0655 12.25 45.75C12.25 47.4345 13.6211 48.8 15.3125 48.8H27.5625C29.2539 48.8 30.625 47.4345 30.625 45.75C30.625 44.0655 29.2539 42.7 27.5625 42.7H15.3125Z" fill="black"></path> </svg> 