<?xml version="1.0" encoding="UTF-8"?> <svg xmlns="http://www.w3.org/2000/svg" width="1666" height="271" viewBox="0 0 1666 271" fill="none"> <path d="M103.826 171.806C123.19 171.806 138.887 156.109 138.887 136.746C138.887 117.383 123.19 101.686 103.826 101.686C84.463 101.686 68.766 117.383 68.766 136.746C68.766 156.109 84.463 171.806 103.826 171.806Z" fill="black"></path> <path d="M103.826 163.752C118.741 163.752 130.832 151.661 130.832 136.746C130.832 121.831 118.741 109.74 103.826 109.74C88.9114 109.74 76.8204 121.831 76.8204 136.746C76.8204 151.661 88.9114 163.752 103.826 163.752Z" fill="black"></path> <path fill-rule="evenodd" clip-rule="evenodd" d="M105.794 136.109C106.623 108.832 109.109 27 109.109 27H99.163C99.163 27 101.424 108.832 102.177 136.109" fill="black"></path> <path fill-rule="evenodd" clip-rule="evenodd" d="M105.547 135.891C106.376 163.168 108.863 245 108.863 245H98.9163C98.9163 245 101.177 163.168 101.93 135.891" fill="black"></path> <path fill-rule="evenodd" clip-rule="evenodd" d="M107.966 136.478C95.0243 112.452 56.1993 40.3738 56.1993 40.3738L47.5897 45.3545C47.5897 45.3545 90.5239 115.056 104.835 138.289" fill="black"></path> <path fill-rule="evenodd" clip-rule="evenodd" d="M109.198 137.101C86.2388 122.349 17.3623 78.0916 17.3623 78.0916L12.2421 86.6189C12.2421 86.6189 83.5624 126.806 107.336 140.202" fill="black"></path> <path fill-rule="evenodd" clip-rule="evenodd" d="M104.117 138.473C118.199 115.097 160.448 44.9703 160.448 44.9703L151.776 40.0986C151.776 40.0986 113.667 112.55 100.963 136.701" fill="black"></path> <path fill-rule="evenodd" clip-rule="evenodd" d="M101.585 138.807C125.438 125.549 196.998 85.7775 196.998 85.7775L191.905 77.2344C191.905 77.2344 122.775 121.084 99.7324 135.7" fill="black"></path> <path fill-rule="evenodd" clip-rule="evenodd" d="M101.673 135.736C114.312 159.922 152.23 232.482 152.23 232.482L160.902 227.61C160.902 227.61 118.845 157.375 104.826 133.964" fill="black"></path> <path fill-rule="evenodd" clip-rule="evenodd" d="M100.294 135.509C123.31 150.172 192.358 194.162 192.358 194.162L197.445 185.614C197.445 185.614 125.969 145.705 102.144 132.401" fill="black"></path> <path fill-rule="evenodd" clip-rule="evenodd" d="M107.463 132.033C83.5515 145.185 11.8158 184.64 11.8158 184.64L16.8717 193.205C16.8717 193.205 86.1943 149.662 109.302 135.148" fill="black"></path> <path fill-rule="evenodd" clip-rule="evenodd" d="M104.794 134.267C90.561 157.551 47.8613 227.404 47.8613 227.404L56.5015 232.331C56.5015 232.331 95.0774 160.127 107.936 136.058" fill="black"></path> <path fill-rule="evenodd" clip-rule="evenodd" d="M103.558 130.453C98.2713 149.3 82.4124 205.84 82.4124 205.84L89.3369 207.557C89.3369 207.557 101.891 150.197 106.076 131.078" fill="black"></path> <path fill-rule="evenodd" clip-rule="evenodd" d="M107.866 130.193C93.9017 143.909 52.0095 185.059 52.0095 185.059L57.1611 189.995C57.1611 189.995 96.5946 146.489 109.739 131.987" fill="black"></path> <path fill-rule="evenodd" clip-rule="evenodd" d="M112.341 134.127C93.2049 138.246 35.7976 150.602 35.7976 150.602L37.5099 157.528C37.5099 157.528 94.1 141.866 112.963 136.645" fill="black"></path> <path fill-rule="evenodd" clip-rule="evenodd" d="M112.798 138.668C94.2736 132.344 38.7001 113.374 38.7001 113.374L36.6015 120.193C36.6015 120.193 93.1766 135.909 112.035 141.147" fill="black"></path> <path fill-rule="evenodd" clip-rule="evenodd" d="M109.973 140.065C96.8518 125.54 57.4886 81.9644 57.4886 81.9644L52.3423 86.9052C52.3423 86.9052 94.1617 128.123 108.101 141.862" fill="black"></path> <path fill-rule="evenodd" clip-rule="evenodd" d="M106.707 141.808C102.415 122.711 89.5384 65.418 89.5384 65.418L82.6286 67.193C82.6286 67.193 98.8029 123.639 104.194 142.454" fill="black"></path> <path fill-rule="evenodd" clip-rule="evenodd" d="M104.164 142.285C109.432 123.434 125.237 66.8786 125.237 66.8786L118.311 65.168C118.311 65.168 105.812 122.539 101.645 141.663" fill="black"></path> <path fill-rule="evenodd" clip-rule="evenodd" d="M100.941 141.791C114.711 127.88 156.023 86.1473 156.023 86.1473L150.802 81.2847C150.802 81.2847 111.983 125.339 99.0427 140.023" fill="black"></path> <path fill-rule="evenodd" clip-rule="evenodd" d="M96.6805 139.492C115.637 134.614 172.506 119.978 172.506 119.978L170.519 113.126C170.519 113.126 114.598 131.032 95.9579 137.001" fill="black"></path> <path fill-rule="evenodd" clip-rule="evenodd" d="M97.274 135.491C116.024 141.11 172.275 157.967 172.275 157.967L174.114 151.074C174.114 151.074 116.986 137.507 97.9429 132.985" fill="black"></path> <path fill-rule="evenodd" clip-rule="evenodd" d="M98.9443 133.391C112.238 147.759 152.118 190.861 152.118 190.861L157.205 185.86C157.205 185.86 114.897 145.144 100.794 131.573" fill="black"></path> <path fill-rule="evenodd" clip-rule="evenodd" d="M102.167 131.234C106.408 150.344 119.129 207.671 119.129 207.671L126.043 205.915C126.043 205.915 110.022 149.425 104.682 130.596" fill="black"></path> <path fill-rule="evenodd" clip-rule="evenodd" d="M98.8897 137.767C126.167 138.596 207.999 141.083 207.999 141.083V131.136C207.999 131.136 126.167 133.397 98.8897 134.15" fill="black"></path> <path fill-rule="evenodd" clip-rule="evenodd" d="M109.109 134.15C81.8321 133.322 0 130.835 0 130.835V140.781C0 140.781 81.8321 138.521 109.109 137.767" fill="black"></path> <path d="M358.716 177.333L439.239 51.3276H460.913V214.843H439.239V88.7251L358.716 214.843H337.154V51.3276H358.716V177.333ZM550.42 136.342H530.991V122.529H549.634C557.87 122.529 564.533 121.368 569.624 119.047C574.715 116.726 578.421 113.507 580.742 109.389C583.063 105.271 584.224 100.517 584.224 95.1265C584.224 89.9604 582.951 85.2437 580.406 80.9761C577.86 76.6336 573.929 73.1896 568.614 70.644C563.298 68.0236 556.447 66.7134 548.062 66.7134C541.773 66.7134 536.083 67.9113 530.991 70.3071C525.9 72.6281 521.857 75.8849 518.863 80.0776C515.868 84.1955 514.37 88.9497 514.37 94.3403H492.696C492.696 87.3774 494.156 81.1258 497.075 75.5854C499.995 69.9702 504.001 65.216 509.092 61.3228C514.183 57.3547 520.06 54.3224 526.724 52.2261C533.462 50.1297 540.575 49.0815 548.062 49.0815C556.822 49.0815 564.758 50.0923 571.87 52.1138C578.983 54.0604 585.085 56.9803 590.176 60.8735C595.267 64.7668 599.16 69.5959 601.856 75.3608C604.551 81.1258 605.899 87.8267 605.899 95.4634C605.899 101.079 604.588 106.357 601.968 111.298C599.348 116.24 595.604 120.582 590.738 124.326C585.871 128.069 580.031 131.027 573.218 133.198C566.405 135.294 558.806 136.342 550.42 136.342ZM530.991 126.796H550.42C559.629 126.796 567.827 127.732 575.015 129.604C582.202 131.476 588.267 134.208 593.208 137.802C598.15 141.396 601.893 145.851 604.439 151.167C607.059 156.407 608.369 162.434 608.369 169.248C608.369 176.884 606.872 183.66 603.877 189.575C600.957 195.489 596.802 200.506 591.411 204.624C586.021 208.741 579.619 211.848 572.207 213.945C564.87 216.041 556.822 217.089 548.062 217.089C541.024 217.089 534.061 216.191 527.173 214.394C520.36 212.522 514.183 209.677 508.643 205.859C503.102 201.966 498.648 197.024 495.279 191.035C491.984 185.045 490.337 177.858 490.337 169.472H512.012C512.012 174.938 513.509 179.954 516.504 184.521C519.574 189.088 523.804 192.757 529.195 195.527C534.585 198.222 540.874 199.57 548.062 199.57C556.297 199.57 563.26 198.297 568.95 195.751C574.715 193.131 579.095 189.575 582.09 185.083C585.16 180.515 586.695 175.387 586.695 169.697C586.695 164.681 585.871 160.338 584.224 156.669C582.652 152.926 580.293 149.856 577.149 147.46C574.079 145.065 570.223 143.305 565.581 142.182C561.014 140.984 555.698 140.385 549.634 140.385H530.991V126.796ZM740.664 51.3276V69.0718H665.869V51.3276H740.664ZM759.307 51.3276V214.843H737.632V51.3276H759.307ZM658.457 51.3276H680.02L676.314 131.401C675.79 142.931 674.891 153.225 673.618 162.285C672.42 171.269 670.698 179.093 668.452 185.756C666.206 192.345 663.286 197.81 659.693 202.153C656.099 206.42 651.682 209.602 646.441 211.699C641.275 213.795 635.06 214.843 627.798 214.843H621.958V197.211L626.45 196.875C630.643 196.575 634.237 195.639 637.232 194.067C640.301 192.42 642.884 189.949 644.981 186.655C647.152 183.361 648.911 179.093 650.259 173.852C651.607 168.611 652.655 162.21 653.404 154.648C654.227 147.011 654.864 138.102 655.313 127.919L658.457 51.3276ZM843.648 153.188L882.281 51.3276H923.946L868.804 181.04C866.708 185.831 864.274 190.398 861.504 194.741C858.809 199.083 855.589 202.939 851.846 206.308C848.177 209.677 843.835 212.335 838.819 214.282C833.802 216.228 827.925 217.202 821.187 217.202C819.54 217.202 817.518 217.164 815.122 217.089C812.801 217.089 810.78 217.052 809.058 216.977L808.384 186.43C809.357 186.655 810.705 186.805 812.427 186.879C814.149 186.879 815.384 186.879 816.133 186.879C820.625 186.879 824.182 186.355 826.802 185.307C829.422 184.184 831.481 182.537 832.979 180.366C834.551 178.12 835.899 175.275 837.022 171.831L843.648 153.188ZM821.748 51.3276L855.215 122.304L868.018 167.675H839.717L779.859 51.3276H821.748ZM940.005 51.3276H979.424V101.079C979.424 107.667 980.472 112.796 982.569 116.464C984.74 120.133 987.959 122.716 992.227 124.213C996.494 125.711 1001.81 126.459 1008.17 126.459C1009.82 126.459 1012.18 126.385 1015.25 126.235C1018.39 126.01 1021.73 125.711 1025.24 125.336C1028.76 124.962 1032.06 124.55 1035.13 124.101C1038.2 123.577 1040.48 122.978 1041.98 122.304V152.626C1040.41 153.225 1038.01 153.787 1034.79 154.311C1031.57 154.835 1028.16 155.284 1024.57 155.659C1020.98 156.033 1017.65 156.333 1014.58 156.557C1011.58 156.707 1009.45 156.782 1008.17 156.782C994.473 156.782 982.494 154.798 972.237 150.83C962.054 146.861 954.118 140.76 948.428 132.524C942.813 124.288 940.005 113.806 940.005 101.079V51.3276ZM1034.23 51.3276H1073.65V214.843H1034.23V51.3276ZM1210.77 184.521V214.843H1123.62V184.521H1210.77ZM1137.66 51.3276V214.843H1098.24V51.3276H1137.66ZM1199.54 116.24V145.551H1123.62V116.24H1199.54ZM1211.11 51.3276V81.7622H1123.62V51.3276H1211.11ZM1337.11 116.24V146.562H1253.22V116.24H1337.11ZM1266.36 51.3276V214.843H1226.94V51.3276H1266.36ZM1363.62 51.3276V214.843H1324.31V51.3276H1363.62ZM1425.84 154.536L1484.57 51.3276H1523.99V214.843H1484.57V111.748L1425.84 214.843H1386.42V51.3276H1425.84V154.536ZM1660.66 184.521V214.843H1573.52V184.521H1660.66ZM1587.55 51.3276V214.843H1548.14V51.3276H1587.55ZM1649.43 116.24V145.551H1573.52V116.24H1649.43ZM1661 51.3276V81.7622H1573.52V51.3276H1661Z" fill="black"></path> </svg> 