<?xml version="1.0" encoding="UTF-8"?> <svg xmlns="http://www.w3.org/2000/svg" width="50" height="50" viewBox="0 0 50 50" fill="none"> <path d="M0 24C0 12.6863 0 7.02944 3.51472 3.51472C7.02944 0 12.6863 0 24 0H26C37.3137 0 42.9705 0 46.4853 3.51472C50 7.02944 50 12.6863 50 24V26C50 37.3137 50 42.9705 46.4853 46.4853C42.9705 50 37.3137 50 26 50H24C12.6863 50 7.02944 50 3.51472 46.4853C0 42.9705 0 37.3137 0 26V24Z" fill="black"></path> <path d="M9 42L11.3656 33.2042C9.4578 29.7778 8.85168 25.7795 9.65844 21.943C10.4652 18.1065 12.6307 14.689 15.7576 12.3179C18.8845 9.94666 22.7631 8.78075 26.6816 9.03406C30.6 9.28738 34.2956 10.9429 37.0901 13.6969C39.8845 16.4509 41.5905 20.1186 41.8949 24.027C42.1994 27.9353 41.0818 31.8222 38.7473 34.9744C36.4129 38.1265 33.0181 40.3325 29.1859 41.1875C25.3538 42.0425 21.3413 41.4892 17.8849 39.6291L9 42ZM18.3133 36.3376L18.8628 36.663C21.3664 38.1445 24.2905 38.7576 27.1796 38.4067C30.0686 38.0558 32.7602 36.7607 34.835 34.7231C36.9098 32.6855 38.2511 30.02 38.6501 27.1419C39.049 24.2638 38.483 21.3348 37.0404 18.8113C35.5979 16.2879 33.3596 14.3117 30.6746 13.1908C27.9896 12.0699 25.0085 11.8671 22.196 12.6142C19.3835 13.3613 16.8976 15.0163 15.1256 17.3211C13.3536 19.626 12.395 22.4513 12.3993 25.3569C12.397 27.766 13.0644 30.1285 14.3272 32.1815L14.6718 32.7486L13.3493 37.6579L18.3133 36.3376Z" fill="white"></path> <path fill-rule="evenodd" clip-rule="evenodd" d="M31.6496 27.6154C31.3275 27.356 30.9504 27.1734 30.5469 27.0816C30.1434 26.9897 29.7242 26.991 29.3213 27.0854C28.716 27.3364 28.3248 28.2848 27.9336 28.759C27.8512 28.8727 27.73 28.9524 27.5928 28.9832C27.4556 29.014 27.3119 28.9938 27.1886 28.9264C24.9723 28.0598 23.1146 26.4706 21.9173 24.4169C21.8151 24.2888 21.7668 24.126 21.7824 23.963C21.7981 23.8 21.8765 23.6494 22.0011 23.5429C22.4374 23.1117 22.7577 22.5777 22.9324 21.9902C22.9712 21.3421 22.8225 20.6966 22.504 20.1306C22.2578 19.3371 21.7892 18.6305 21.1536 18.0944C20.8258 17.9472 20.4623 17.8978 20.107 17.9523C19.7517 18.0067 19.4197 18.1626 19.1512 18.4012C18.6851 18.8027 18.3151 19.3035 18.0685 19.8667C17.8219 20.4299 17.7049 21.0412 17.7263 21.6554C17.7277 22.0004 17.7715 22.3439 17.8567 22.6782C18.0729 23.4815 18.4055 24.2489 18.8439 24.9562C19.1602 25.498 19.5052 26.0225 19.8777 26.5275C21.088 28.1862 22.6093 29.5946 24.3573 30.6744C25.2345 31.2231 26.172 31.6692 27.1513 32.0039C28.1686 32.4643 29.2918 32.641 30.4017 32.5153C31.034 32.4198 31.6331 32.1705 32.1463 31.7895C32.6595 31.4085 33.071 30.9074 33.3447 30.3303C33.5054 29.9817 33.5542 29.592 33.4844 29.2146C33.3167 28.4429 32.2829 27.9873 31.6496 27.6154Z" fill="white"></path> </svg> 