<?xml version="1.0" encoding="UTF-8"?> <svg xmlns="http://www.w3.org/2000/svg" width="1031" height="1081" viewBox="0 0 1031 1081" fill="none"> <path d="M514.369 718.321C610.297 718.321 688.062 640.556 688.062 544.628C688.062 448.7 610.297 370.935 514.369 370.935C418.441 370.935 340.676 448.7 340.676 544.628C340.676 640.556 418.441 718.321 514.369 718.321Z" fill="white"></path> <path d="M514.369 678.419C588.259 678.419 648.16 618.519 648.16 544.628C648.16 470.737 588.259 410.837 514.369 410.837C440.478 410.837 380.578 470.737 380.578 544.628C380.578 618.519 440.478 678.419 514.369 678.419Z" fill="white"></path> <path fill-rule="evenodd" clip-rule="evenodd" d="M524.117 541.475C528.223 406.34 540.542 0.933167 540.542 0.933167H491.266C491.266 0.933167 502.465 406.34 506.198 541.475" fill="white"></path> <path fill-rule="evenodd" clip-rule="evenodd" d="M522.895 540.391C527.001 675.527 539.32 1080.93 539.32 1080.93H490.044C490.044 1080.93 501.243 675.527 504.976 540.391" fill="white"></path> <path fill-rule="evenodd" clip-rule="evenodd" d="M534.878 543.303C470.763 424.274 278.418 67.1889 278.418 67.1889L235.766 91.8639C235.766 91.8639 448.467 437.173 519.367 552.275" fill="white"></path> <path fill-rule="evenodd" clip-rule="evenodd" d="M540.979 546.388C427.238 473.303 86.0149 254.047 86.0149 254.047L60.6488 296.293C60.6488 296.293 413.979 495.385 531.755 561.75" fill="white"></path> <path fill-rule="evenodd" clip-rule="evenodd" d="M515.808 553.182C585.575 437.376 794.879 89.9596 794.879 89.9596L751.918 65.8249C751.918 65.8249 563.119 424.76 500.186 544.406" fill="white"></path> <path fill-rule="evenodd" clip-rule="evenodd" d="M503.263 554.837C621.436 489.159 975.955 292.124 975.955 292.124L950.72 249.8C950.72 249.8 608.245 467.035 494.087 539.446" fill="white"></path> <path fill-rule="evenodd" clip-rule="evenodd" d="M503.7 539.624C566.318 659.447 754.169 1018.92 754.169 1018.92L797.128 994.778C797.128 994.778 588.773 646.83 519.322 530.847" fill="white"></path> <path fill-rule="evenodd" clip-rule="evenodd" d="M496.87 538.503C610.894 611.145 952.967 829.073 952.967 829.073L978.169 786.729C978.169 786.729 624.068 589.011 506.034 523.105" fill="white"></path> <path fill-rule="evenodd" clip-rule="evenodd" d="M532.388 521.283C413.925 586.437 58.5371 781.9 58.5371 781.9L83.5845 824.335C83.5845 824.335 427.018 608.619 541.496 536.714" fill="white"></path> <path fill-rule="evenodd" clip-rule="evenodd" d="M519.164 532.345C448.651 647.698 237.111 993.758 237.111 993.758L279.915 1018.17C279.915 1018.17 471.026 660.459 534.729 541.222" fill="white"></path> <path fill-rule="evenodd" clip-rule="evenodd" d="M513.038 513.453C486.849 606.822 408.282 886.929 408.282 886.929L442.586 895.436C442.586 895.436 504.781 611.269 525.512 516.547" fill="white"></path> <path fill-rule="evenodd" clip-rule="evenodd" d="M534.381 512.163C465.201 580.117 257.662 783.979 257.662 783.979L283.184 808.43C283.184 808.43 478.542 592.898 543.662 521.054" fill="white"></path> <path fill-rule="evenodd" clip-rule="evenodd" d="M556.55 531.653C461.749 552.058 177.346 613.274 177.346 613.274L185.829 647.584C185.829 647.584 466.183 569.993 559.635 544.129" fill="white"></path> <path fill-rule="evenodd" clip-rule="evenodd" d="M558.816 554.149C467.044 522.822 191.725 428.842 191.725 428.842L181.329 462.622C181.329 462.622 461.609 540.48 555.036 566.433" fill="white"></path> <path fill-rule="evenodd" clip-rule="evenodd" d="M544.82 561.071C479.816 489.112 284.806 273.234 284.806 273.234L259.31 297.711C259.31 297.711 466.489 501.907 535.549 569.972" fill="white"></path> <path fill-rule="evenodd" clip-rule="evenodd" d="M528.64 569.709C507.376 475.097 443.585 191.261 443.585 191.261L409.353 200.054C409.353 200.054 489.482 479.694 516.192 572.907" fill="white"></path> <path fill-rule="evenodd" clip-rule="evenodd" d="M516.042 572.072C542.142 478.679 620.442 198.497 620.442 198.497L586.129 190.023C586.129 190.023 524.206 474.249 503.564 568.991" fill="white"></path> <path fill-rule="evenodd" clip-rule="evenodd" d="M500.075 569.625C568.295 500.708 772.957 293.957 772.957 293.957L747.095 269.867C747.095 269.867 554.777 488.115 490.671 560.865" fill="white"></path> <path fill-rule="evenodd" clip-rule="evenodd" d="M478.967 558.235C572.879 534.066 854.615 461.559 854.615 461.559L844.771 427.614C844.771 427.614 567.733 516.322 475.388 545.891" fill="white"></path> <path fill-rule="evenodd" clip-rule="evenodd" d="M481.908 538.413C574.799 566.249 853.472 649.759 853.472 649.759L862.585 615.61C862.585 615.61 579.563 548.399 485.222 525.995" fill="white"></path> <path fill-rule="evenodd" clip-rule="evenodd" d="M490.183 528.009C556.04 599.188 753.613 812.724 753.613 812.724L778.815 787.944C778.815 787.944 569.214 586.235 499.347 518.998" fill="white"></path> <path fill-rule="evenodd" clip-rule="evenodd" d="M506.149 517.324C527.157 611.993 590.179 896.001 590.179 896.001L624.435 887.3C624.435 887.3 545.064 607.445 518.606 514.16" fill="white"></path> <path fill-rule="evenodd" clip-rule="evenodd" d="M489.912 549.688C625.048 553.794 1030.45 566.113 1030.45 566.113V516.837C1030.45 516.837 625.048 528.036 489.912 531.769" fill="white"></path> <path fill-rule="evenodd" clip-rule="evenodd" d="M540.542 531.769C405.407 527.663 0 515.344 0 515.344V564.62C0 564.62 405.407 553.421 540.542 549.688" fill="white"></path> </svg> 