<?xml version="1.0" encoding="UTF-8"?> <svg xmlns="http://www.w3.org/2000/svg" width="24" height="26" viewBox="0 0 24 26" fill="none"> <path fill-rule="evenodd" clip-rule="evenodd" d="M19.2732 2.36364C17.9678 2.36364 16.9095 3.42187 16.9095 4.72727C16.9095 5.13787 17.0142 5.52401 17.1984 5.86046C17.2103 5.8785 17.2217 5.89697 17.2328 5.91586C17.2437 5.93468 17.2541 5.95368 17.264 5.97284C17.6809 6.64403 18.4249 7.09091 19.2732 7.09091C20.5786 7.09091 21.6368 6.03267 21.6368 4.72727C21.6368 3.42187 20.5786 2.36364 19.2732 2.36364ZM15.9143 8.05365C16.771 8.9187 17.9595 9.45455 19.2732 9.45455C21.884 9.45455 24.0004 7.33807 24.0004 4.72727C24.0004 2.11647 21.884 0 19.2732 0C16.6624 0 14.5459 2.11647 14.5459 4.72727C14.5459 5.17271 14.6075 5.60375 14.7227 6.01235L8.44956 9.6732C7.59287 8.80839 6.40451 8.27271 5.09104 8.27271C2.48024 8.27271 0.36377 10.3892 0.36377 13C0.36377 15.6108 2.48024 17.7272 5.09104 17.7272C6.40494 17.7272 7.59363 17.1912 8.45039 16.3259L14.7243 19.9819C14.6081 20.3922 14.5459 20.8252 14.5459 21.2727C14.5459 23.8835 16.6624 26 19.2732 26C21.884 26 24.0004 23.8835 24.0004 21.2727C24.0004 18.6619 21.884 16.5455 19.2732 16.5455C17.9617 16.5455 16.7749 17.0796 15.9185 17.9421L9.64171 14.2845C9.75677 13.876 9.81831 13.4452 9.81831 13C9.81831 12.5543 9.75665 12.1231 9.64139 11.7143L15.9143 8.05365ZM7.10105 11.7557C7.1106 11.7742 7.12068 11.7926 7.13131 11.8108C7.14204 11.8292 7.1532 11.8472 7.16475 11.8648C7.34957 12.2017 7.45468 12.5886 7.45468 13C7.45468 13.41 7.35026 13.7957 7.16655 14.1319C7.15422 14.1505 7.14234 14.1696 7.13093 14.1892C7.11983 14.2083 7.10933 14.2275 7.09941 14.2469C6.68228 14.9173 5.93878 15.3636 5.09104 15.3636C3.78564 15.3636 2.72741 14.3054 2.72741 13C2.72741 11.6946 3.78564 10.6363 5.09104 10.6363C5.93989 10.6363 6.68423 11.0838 7.10105 11.7557ZM16.9095 21.2727C16.9095 20.8877 17.0016 20.5242 17.1649 20.203C17.1936 20.1651 17.2204 20.125 17.245 20.0829C17.2685 20.0425 17.2893 20.0014 17.3075 19.9596C17.7316 19.3262 18.4537 18.9091 19.2732 18.9091C20.5786 18.9091 21.6368 19.9673 21.6368 21.2727C21.6368 22.5781 20.5786 23.6364 19.2732 23.6364C17.9678 23.6364 16.9095 22.5781 16.9095 21.2727Z" fill="black"></path> </svg> 