<?xml version="1.0" encoding="UTF-8"?> <svg xmlns="http://www.w3.org/2000/svg" width="50" height="50" viewBox="0 0 50 50" fill="none"> <path d="M0 24C0 12.6863 0 7.02944 3.51472 3.51472C7.02944 0 12.6863 0 24 0H26C37.3137 0 42.9705 0 46.4853 3.51472C50 7.02944 50 12.6863 50 24V26C50 37.3137 50 42.9705 46.4853 46.4853C42.9705 50 37.3137 50 26 50H24C12.6863 50 7.02944 50 3.51472 46.4853C0 42.9705 0 37.3137 0 26V24Z" fill="black"></path> <path d="M26.6042 36.0217C15.2084 36.0217 8.70851 28.2092 8.43768 15.2092H14.146C14.3335 24.7508 18.5417 28.7925 21.8751 29.6258V15.2092H27.2503V23.4383C30.5419 23.0842 33.9999 19.3342 35.1665 15.2092H40.5416C39.6458 20.2925 35.8958 24.0425 33.2291 25.5842C35.8958 26.8342 40.1668 30.105 41.7918 36.0217H35.875C34.6041 32.0633 31.4378 29.0008 27.2503 28.5842V36.0217H26.6042Z" fill="white"></path> </svg> 