<?xml version="1.0" encoding="UTF-8"?> <svg xmlns="http://www.w3.org/2000/svg" width="4254" height="4459" viewBox="0 0 4254 4459" fill="none"> <path fill-rule="evenodd" clip-rule="evenodd" d="M2231.74 2L2173.71 1911.43L2419.78 781.995L2561.32 816.952L2272.86 1849.15L3103.66 269.679L3280.87 369.234L2293.46 2008.21L3083.77 1111.35L3190.45 1210.72L2437.66 1971.2L3923.72 1028.58L4027.82 1203.16L2390.9 2112.93L3486.68 1762.06L3527.29 1902.08L2447.51 2179.97L4252.62 2130.1V2333.37L2472.64 2279.28L3560.16 2537.54L3522.57 2678.41L2448.76 2356.62L4036.94 3243.41L3932.99 3418.08L2329.17 2396.32L3214.61 3248.42L3110.65 3350.64L2344.83 2522.93L3290.15 4101.61L3112.95 4201.18L2279.38 2606.08L2577.8 3658.26L2436.49 3694.16L2166.55 2477.67L2226.69 4457H2023.43L2075.9 2557.66L1827.67 3691.82L1686.16 3656.73L1951.74 2709.9L1156.65 4198.1L980.084 4097.4L2021.69 2393.43L1170.13 3332.92L1064.86 3232.07L1868.32 2442.83L346.786 3398.53L243.465 3223.49L1739.35 2400.75L768.545 2669.44L733.552 2527.91L1910.96 2274.48L2 2327.21V2123.95L1720.91 2176.18C1264.07 2049.28 749.98 1906.47 749.98 1906.47L792.866 1767.13L1882.8 2139.18L252.176 1220.36L356.812 1046.1L1885.58 2028.41L1071.66 1226.21L1176.82 1125.24L1989.59 2024.98L974.532 377.09L1150.48 275.305L1968.92 1794.74L1690.58 823.375L1831.79 787.1L2080.76 1894.91L2028.47 2H2231.74Z" fill="white"></path> <path d="M2173.71 1911.43L2172.57 1911.39L2172.2 1923.76L2174.83 1911.67L2173.71 1911.43ZM2231.74 2L2232.88 2.0347L2232.91 0.857692H2231.74V2ZM2419.78 781.995L2420.05 780.886L2418.91 780.604L2418.66 781.752L2419.78 781.995ZM2561.32 816.952L2562.42 817.26L2562.74 816.125L2561.59 815.843L2561.32 816.952ZM2272.86 1849.15L2271.76 1848.85L2268.87 1859.2L2273.87 1849.69L2272.86 1849.15ZM3103.66 269.679L3104.22 268.683L3103.2 268.108L3102.65 269.147L3103.66 269.679ZM3280.87 369.234L3281.85 369.824L3282.46 368.815L3281.43 368.239L3280.87 369.234ZM2293.46 2008.21L2292.48 2007.62L2285.95 2018.46L2294.32 2008.97L2293.46 2008.21ZM3083.77 1111.35L3084.55 1110.51L3083.69 1109.71L3082.91 1110.6L3083.77 1111.35ZM3190.45 1210.72L3191.26 1211.53L3192.09 1210.69L3191.23 1209.89L3190.45 1210.72ZM2437.66 1971.2L2436.85 1970.39L2429.74 1977.57L2438.27 1972.16L2437.66 1971.2ZM3923.72 1028.58L3924.7 1027.99L3924.1 1026.98L3923.11 1027.61L3923.72 1028.58ZM4027.82 1203.16L4028.37 1204.16L4029.4 1203.59L4028.8 1202.58L4027.82 1203.16ZM2390.9 2112.93L2390.34 2111.93L2380.26 2117.54L2391.25 2114.02L2390.9 2112.93ZM3486.68 1762.06L3487.78 1761.74L3487.45 1760.61L3486.33 1760.97L3486.68 1762.06ZM3527.29 1902.08L3527.57 1903.19L3528.71 1902.89L3528.38 1901.76L3527.29 1902.08ZM2447.51 2179.97L2447.23 2178.86L2437.4 2181.39L2447.54 2181.11L2447.51 2179.97ZM4252.62 2130.1H4253.77V2128.93L4252.59 2128.96L4252.62 2130.1ZM4252.62 2333.37L4252.59 2334.51L4253.77 2334.55V2333.37H4252.62ZM2472.64 2279.28L2472.67 2278.14L2461.45 2277.8L2472.38 2280.39L2472.64 2279.28ZM3560.16 2537.54L3561.27 2537.84L3561.57 2536.7L3560.43 2536.43L3560.16 2537.54ZM3522.57 2678.41L3522.24 2679.5L3523.37 2679.84L3523.68 2678.7L3522.57 2678.41ZM2448.76 2356.62L2449.09 2355.52L2439.09 2352.53L2448.2 2357.61L2448.76 2356.62ZM4036.94 3243.41L4037.93 3243.99L4038.53 3242.98L4037.5 3242.41L4036.94 3243.41ZM3932.99 3418.08L3932.37 3419.04L3933.37 3419.67L3933.97 3418.66L3932.99 3418.08ZM2329.17 2396.32L2329.79 2395.35L2320.13 2389.2L2328.38 2397.14L2329.17 2396.32ZM3214.61 3248.42L3215.41 3249.23L3216.25 3248.41L3215.4 3247.59L3214.61 3248.42ZM3110.65 3350.64L3109.82 3351.41L3110.62 3352.28L3111.46 3351.45L3110.65 3350.64ZM2344.83 2522.93L2345.66 2522.16L2338.2 2514.09L2343.85 2523.52L2344.83 2522.93ZM3290.15 4101.61L3290.71 4102.61L3291.74 4102.03L3291.13 4101.02L3290.15 4101.61ZM3112.95 4201.18L3111.93 4201.71L3112.48 4202.75L3113.51 4202.18L3112.95 4201.18ZM2279.38 2606.08L2280.39 2605.55L2275.25 2595.71L2278.28 2606.39L2279.38 2606.08ZM2577.8 3658.26L2578.08 3659.37L2579.21 3659.08L2578.89 3657.95L2577.8 3658.26ZM2436.49 3694.16L2435.37 3694.4L2435.63 3695.55L2436.77 3695.26L2436.49 3694.16ZM2166.55 2477.67L2167.66 2477.43L2165.04 2465.6L2165.41 2477.71L2166.55 2477.67ZM2226.69 4457V4458.14H2227.87L2227.83 4456.96L2226.69 4457ZM2023.43 4457L2022.29 4456.97L2022.26 4458.14H2023.43V4457ZM2075.9 2557.66L2077.04 2557.69L2077.37 2545.57L2074.78 2557.41L2075.9 2557.66ZM1827.67 3691.82L1827.39 3692.93L1828.53 3693.22L1828.78 3692.07L1827.67 3691.82ZM1686.16 3656.73L1685.06 3656.42L1684.74 3657.56L1685.89 3657.84L1686.16 3656.73ZM1951.74 2709.9L1952.84 2710.2L1955.67 2700.12L1950.73 2709.36L1951.74 2709.9ZM1156.65 4198.1L1156.09 4199.09L1157.11 4199.67L1157.66 4198.64L1156.65 4198.1ZM980.084 4097.4L979.109 4096.81L978.495 4097.81L979.518 4098.39L980.084 4097.4ZM2021.69 2393.43L2022.66 2394.03L2029 2383.67L2020.84 2392.66L2021.69 2393.43ZM1170.13 3332.92L1169.34 3333.75L1170.19 3334.56L1170.98 3333.69L1170.13 3332.92ZM1064.86 3232.07L1064.06 3231.25L1063.21 3232.08L1064.07 3232.89L1064.86 3232.07ZM1868.32 2442.83L1869.12 2443.65L1876.65 2436.25L1867.71 2441.86L1868.32 2442.83ZM346.786 3398.53L345.802 3399.11L346.399 3400.13L347.393 3399.5L346.786 3398.53ZM243.465 3223.49L242.915 3222.49L241.883 3223.06L242.481 3224.07L243.465 3223.49ZM1739.35 2400.75L1739.9 2401.76L1748.46 2397.05L1739.04 2399.65L1739.35 2400.75ZM768.545 2669.44L767.436 2669.71L767.717 2670.85L768.849 2670.54L768.545 2669.44ZM733.552 2527.91L733.311 2526.79L732.16 2527.04L732.443 2528.18L733.552 2527.91ZM1910.96 2274.48L1911.2 2275.59L1923.28 2272.99L1910.93 2273.33L1910.96 2274.48ZM2 2327.21H0.857692V2328.38L2.03154 2328.35L2 2327.21ZM2 2123.95L2.03469 2122.8L0.857692 2122.77V2123.95H2ZM1720.91 2176.18L1720.87 2177.32L1730.32 2177.61L1721.21 2175.08L1720.91 2176.18ZM749.98 1906.47L748.889 1906.13L748.543 1907.25L749.675 1907.57L749.98 1906.47ZM792.866 1767.13L793.235 1766.04L792.121 1765.66L791.774 1766.79L792.866 1767.13ZM1882.8 2139.18L1882.43 2140.26L1894.14 2144.25L1883.36 2138.18L1882.8 2139.18ZM252.176 1220.36L251.197 1219.77L250.593 1220.78L251.616 1221.35L252.176 1220.36ZM356.812 1046.1L357.429 1045.13L356.439 1044.5L355.832 1045.51L356.812 1046.1ZM1885.58 2028.41L1884.96 2029.38L1894.21 2035.32L1886.38 2027.6L1885.58 2028.41ZM1071.66 1226.21L1070.86 1225.39L1070.02 1226.2L1070.85 1227.02L1071.66 1226.21ZM1176.82 1125.24L1177.67 1124.47L1176.88 1123.6L1176.03 1124.42L1176.82 1125.24ZM1989.59 2024.98L1988.75 2025.75L1997.11 2035.01L1990.57 2024.38L1989.59 2024.98ZM974.532 377.09L973.96 376.101L972.944 376.689L973.56 377.689L974.532 377.09ZM1150.48 275.305L1151.48 274.764L1150.92 273.727L1149.9 274.316L1150.48 275.305ZM1968.92 1794.74L1967.91 1795.28L1972.93 1804.6L1970.02 1794.42L1968.92 1794.74ZM1690.58 823.375L1690.29 822.268L1689.16 822.561L1689.48 823.689L1690.58 823.375ZM1831.79 787.1L1832.9 786.85L1832.64 785.701L1831.5 785.994L1831.79 787.1ZM2080.76 1894.91L2079.65 1895.16L2082.23 1906.64L2081.9 1894.87L2080.76 1894.91ZM2028.47 2V0.857692H2027.3L2027.33 2.03154L2028.47 2ZM2174.86 1911.46L2232.88 2.0347L2230.59 1.9653L2172.57 1911.39L2174.86 1911.46ZM2418.66 781.752L2172.6 1911.18L2174.83 1911.67L2420.9 782.238L2418.66 781.752ZM2561.59 815.843L2420.05 780.886L2419.51 783.104L2561.05 818.061L2561.59 815.843ZM2273.96 1849.46L2562.42 817.26L2560.22 816.645L2271.76 1848.85L2273.96 1849.46ZM3102.65 269.147L2271.85 1848.62L2273.87 1849.69L3104.67 270.211L3102.65 269.147ZM3281.43 368.239L3104.22 268.683L3103.1 270.675L3280.31 370.23L3281.43 368.239ZM2294.44 2008.8L3281.85 369.824L3279.9 368.645L2292.48 2007.62L2294.44 2008.8ZM3082.91 1110.6L2292.6 2007.46L2294.32 2008.97L3084.62 1112.11L3082.91 1110.6ZM3191.23 1209.89L3084.55 1110.51L3082.99 1112.19L3189.67 1211.56L3191.23 1209.89ZM2438.47 1972L3191.26 1211.53L3189.64 1209.92L2436.85 1970.39L2438.47 1972ZM3923.11 1027.61L2437.05 1970.23L2438.27 1972.16L3924.33 1029.54L3923.11 1027.61ZM4028.8 1202.58L3924.7 1027.99L3922.74 1029.16L4026.83 1203.75L4028.8 1202.58ZM2391.45 2113.93L4028.37 1204.16L4027.26 1202.17L2390.34 2111.93L2391.45 2113.93ZM3486.33 1760.97L2390.55 2111.84L2391.25 2114.02L3487.03 1763.15L3486.33 1760.97ZM3528.38 1901.76L3487.78 1761.74L3485.58 1762.38L3526.19 1902.4L3528.38 1901.76ZM2447.8 2181.08L3527.57 1903.19L3527 1900.97L2447.23 2178.86L2447.8 2181.08ZM4252.59 2128.96L2447.48 2178.83L2447.54 2181.11L4252.66 2131.25L4252.59 2128.96ZM4253.77 2333.37V2130.1H4251.48V2333.37H4253.77ZM2472.61 2280.42L4252.59 2334.51L4252.66 2332.23L2472.67 2278.14L2472.61 2280.42ZM3560.43 2536.43L2472.9 2278.17L2472.38 2280.39L3559.9 2538.65L3560.43 2536.43ZM3523.68 2678.7L3561.27 2537.84L3559.06 2537.25L3521.47 2678.11L3523.68 2678.7ZM2448.43 2357.71L3522.24 2679.5L3522.9 2677.31L2449.09 2355.52L2448.43 2357.71ZM4037.5 3242.41L2449.31 2355.62L2448.2 2357.61L4036.39 3244.41L4037.5 3242.41ZM3933.97 3418.66L4037.93 3243.99L4035.96 3242.83L3932.01 3417.49L3933.97 3418.66ZM2328.56 2397.28L3932.37 3419.04L3933.6 3417.11L2329.79 2395.35L2328.56 2397.28ZM3215.4 3247.59L2329.96 2395.49L2328.38 2397.14L3213.82 3249.24L3215.4 3247.59ZM3111.46 3351.45L3215.41 3249.23L3213.81 3247.6L3109.85 3349.82L3111.46 3351.45ZM2343.99 2523.71L3109.82 3351.41L3111.49 3349.86L2345.66 2522.16L2343.99 2523.71ZM3291.13 4101.02L2345.81 2522.34L2343.85 2523.52L3289.17 4102.2L3291.13 4101.02ZM3113.51 4202.18L3290.71 4102.61L3289.59 4100.62L3112.39 4200.18L3113.51 4202.18ZM2278.36 2606.61L3111.93 4201.71L3113.96 4200.65L2280.39 2605.55L2278.36 2606.61ZM2578.89 3657.95L2280.48 2605.77L2278.28 2606.39L2576.7 3658.58L2578.89 3657.95ZM2436.77 3695.26L2578.08 3659.37L2577.51 3657.16L2436.21 3693.05L2436.77 3695.26ZM2165.43 2477.92L2435.37 3694.4L2437.6 3693.91L2167.66 2477.43L2165.43 2477.92ZM2227.83 4456.96L2167.69 2477.64L2165.41 2477.71L2225.55 4457.03L2227.83 4456.96ZM2023.43 4458.14H2226.69V4455.86H2023.43V4458.14ZM2074.76 2557.63L2022.29 4456.97L2024.57 4457.03L2077.04 2557.69L2074.76 2557.63ZM1828.78 3692.07L2077.01 2557.9L2074.78 2557.41L1826.55 3691.58L1828.78 3692.07ZM1685.89 3657.84L1827.39 3692.93L1827.94 3690.72L1686.44 3655.62L1685.89 3657.84ZM1950.64 2709.59L1685.06 3656.42L1687.26 3657.04L1952.84 2710.2L1950.64 2709.59ZM1157.66 4198.64L1952.75 2710.43L1950.73 2709.36L1155.64 4197.56L1157.66 4198.64ZM979.518 4098.39L1156.09 4199.09L1157.22 4197.11L980.65 4096.41L979.518 4098.39ZM2020.72 2392.83L979.109 4096.81L981.058 4098L2022.66 2394.03L2020.72 2392.83ZM1170.98 3333.69L2022.54 2394.2L2020.84 2392.66L1169.29 3332.15L1170.98 3333.69ZM1064.07 3232.89L1169.34 3333.75L1170.92 3332.1L1065.65 3231.24L1064.07 3232.89ZM1867.52 2442.02L1064.06 3231.25L1065.66 3232.88L1869.12 2443.65L1867.52 2442.02ZM347.393 3399.5L1868.93 2443.8L1867.71 2441.86L346.178 3397.57L347.393 3399.5ZM242.481 3224.07L345.802 3399.11L347.769 3397.95L244.449 3222.91L242.481 3224.07ZM1738.8 2399.75L242.915 3222.49L244.016 3224.49L1739.9 2401.76L1738.8 2399.75ZM768.849 2670.54L1739.65 2401.86L1739.04 2399.65L768.24 2668.33L768.849 2670.54ZM732.443 2528.18L767.436 2669.71L769.653 2669.16L734.66 2527.63L732.443 2528.18ZM1910.72 2273.36L733.311 2526.79L733.792 2529.02L1911.2 2275.59L1910.72 2273.36ZM2.03154 2328.35L1910.99 2275.62L1910.93 2273.33L1.96846 2326.07L2.03154 2328.35ZM0.857692 2123.95V2327.21H3.14231V2123.95H0.857692ZM1720.94 2175.04L2.03469 2122.8L1.96531 2125.09L1720.87 2177.32L1720.94 2175.04ZM749.98 1906.47C749.675 1907.57 749.677 1907.57 749.681 1907.57C749.684 1907.57 749.69 1907.57 749.698 1907.57C749.714 1907.58 749.737 1907.59 749.768 1907.59C749.831 1907.61 749.924 1907.64 750.049 1907.67C750.298 1907.74 750.67 1907.84 751.163 1907.98C752.15 1908.26 753.621 1908.66 755.56 1909.2C759.437 1910.28 765.182 1911.88 772.657 1913.95C787.606 1918.11 809.472 1924.18 837.14 1931.86C892.474 1947.24 971.011 1969.05 1063.82 1994.83C1249.45 2046.4 1492.18 2113.83 1720.6 2177.28L1721.21 2175.08C1492.8 2111.63 1250.06 2044.2 1064.44 1992.63C971.623 1966.85 893.085 1945.03 837.751 1929.66C810.084 1921.98 788.218 1915.9 773.268 1911.75C765.794 1909.67 760.048 1908.08 756.171 1907C754.233 1906.46 752.761 1906.05 751.775 1905.78C751.282 1905.64 750.909 1905.54 750.66 1905.47C750.536 1905.44 750.442 1905.41 750.38 1905.39C750.349 1905.38 750.325 1905.38 750.31 1905.37C750.302 1905.37 750.296 1905.37 750.292 1905.37C750.288 1905.37 750.286 1905.37 749.98 1906.47ZM791.774 1766.79L748.889 1906.13L751.072 1906.8L793.958 1767.46L791.774 1766.79ZM1883.17 2138.09L793.235 1766.04L792.497 1768.21L1882.43 2140.26L1883.17 2138.09ZM251.616 1221.35L1882.24 2140.17L1883.36 2138.18L252.737 1219.36L251.616 1221.35ZM355.832 1045.51L251.197 1219.77L253.156 1220.95L357.791 1046.68L355.832 1045.51ZM1886.2 2027.45L357.429 1045.13L356.194 1047.06L1884.96 2029.38L1886.2 2027.45ZM1070.85 1227.02L1884.78 2029.23L1886.38 2027.6L1072.46 1225.4L1070.85 1227.02ZM1176.03 1124.42L1070.86 1225.39L1072.45 1227.03L1177.62 1126.06L1176.03 1124.42ZM1990.44 2024.22L1177.67 1124.47L1175.98 1126.01L1988.75 2025.75L1990.44 2024.22ZM973.56 377.689L1988.62 2025.58L1990.57 2024.38L975.505 376.49L973.56 377.689ZM1149.9 274.316L973.96 376.101L975.104 378.078L1151.05 276.294L1149.9 274.316ZM1969.92 1794.2L1151.48 274.764L1149.47 275.847L1967.91 1795.28L1969.92 1794.2ZM1689.48 823.689L1967.82 1795.05L1970.02 1794.42L1691.68 823.06L1689.48 823.689ZM1831.5 785.994L1690.29 822.268L1690.86 824.481L1832.07 788.207L1831.5 785.994ZM2081.88 1894.65L1832.9 786.85L1830.67 787.351L2079.65 1895.16L2081.88 1894.65ZM2027.33 2.03154L2079.62 1894.94L2081.9 1894.87L2029.61 1.96846L2027.33 2.03154ZM2231.74 0.857692H2028.47V3.14231H2231.74V0.857692Z" fill="white"></path> </svg> 