<?xml version="1.0" encoding="UTF-8"?> <svg xmlns="http://www.w3.org/2000/svg" width="50" height="50" viewBox="0 0 50 50" fill="none"> <path d="M0 24C0 12.6863 0 7.02944 3.51472 3.51472C7.02944 0 12.6863 0 24 0H26C37.3137 0 42.9705 0 46.4853 3.51472C50 7.02944 50 12.6863 50 24V26C50 37.3137 50 42.9705 46.4853 46.4853C42.9705 50 37.3137 50 26 50H24C12.6863 50 7.02944 50 3.51472 46.4853C0 42.9705 0 37.3137 0 26V24Z" fill="black"></path> <path fill-rule="evenodd" clip-rule="evenodd" d="M23.8757 8.92593C23.5648 8.97222 23.1349 9.06482 22.9167 9.12434C22.6984 9.19048 22.3611 9.2963 22.1693 9.36905C21.9841 9.43519 21.6402 9.5873 21.4153 9.69974C21.1839 9.81878 20.7738 10.0569 20.5026 10.2421C20.2315 10.4206 19.7222 10.8571 19.3717 11.2077C19.0278 11.5582 18.5913 12.0675 18.4061 12.3386C18.2275 12.6098 17.9828 13.0132 17.877 13.2315C17.7645 13.4497 17.586 13.8796 17.4735 14.1905C17.3677 14.5013 17.2222 15.0238 17.1627 15.3479C17.0899 15.7315 17.0436 16.2672 17.0436 16.836C17.0436 17.3783 17.0899 17.9471 17.1561 18.291C17.209 18.6019 17.3214 19.045 17.3942 19.2831C17.4735 19.5212 17.6918 20.037 17.8902 20.4405C18.0886 20.8439 18.3862 21.3466 18.5516 21.5648C18.7169 21.7831 19.0212 22.1402 19.2328 22.3519C19.4378 22.5701 19.7751 22.881 19.9735 23.0529C20.172 23.2183 20.5622 23.4894 20.8333 23.6614C21.1045 23.8333 21.6138 24.0913 21.9577 24.2302C22.3016 24.369 22.791 24.5344 23.0489 24.5939C23.3069 24.6534 23.7037 24.7328 23.9418 24.7725C24.1799 24.8056 24.6693 24.8386 25.0331 24.8386C25.3968 24.8386 25.9656 24.7923 26.2897 24.7394C26.6138 24.6865 27.1561 24.5608 27.4802 24.455C27.8042 24.3492 28.2672 24.164 28.5053 24.045C28.7434 23.9259 29.1865 23.668 29.4974 23.463C29.8082 23.2579 30.3307 22.8214 30.6614 22.4907C30.9921 22.1667 31.422 21.6574 31.6138 21.3664C31.8122 21.0754 32.0966 20.5661 32.2487 20.2421C32.4074 19.918 32.6058 19.3955 32.6984 19.0847C32.7844 18.7738 32.8968 18.1984 32.9365 17.795C32.9894 17.3651 33.0026 16.7698 32.9762 16.3399C32.9563 15.9365 32.8902 15.4008 32.8373 15.1495C32.7844 14.8981 32.672 14.5079 32.5992 14.2897C32.5265 14.0714 32.3214 13.6085 32.1561 13.2646C31.9841 12.9206 31.6733 12.3981 31.455 12.1071C31.2368 11.8161 30.8466 11.3664 30.5886 11.1151C30.3307 10.8638 29.9008 10.5 29.6296 10.3082C29.3585 10.123 28.8955 9.85185 28.6045 9.69974C28.3135 9.55423 27.8968 9.36905 27.6786 9.2963C27.4603 9.21693 27.0106 9.09788 26.6865 9.02513C26.3624 8.959 25.7209 8.88624 25.2645 8.8664C24.7553 8.85318 24.2196 8.87302 23.8757 8.92593ZM15.6458 26.1993C15.5123 26.3809 15.3919 26.5445 15.3108 26.6574C15.1624 26.8642 14.9247 27.1857 14.7306 27.4482L14.7305 27.4484L14.5966 27.6296C14.3783 27.9339 14.2196 28.2116 14.2196 28.3108C14.2196 28.4034 14.2989 28.5489 14.4048 28.6415C14.504 28.7341 14.8942 29.0317 15.2778 29.2963C15.6614 29.5675 16.3558 29.9974 16.832 30.2553C17.3016 30.5132 18.082 30.877 18.5516 31.0622C19.0212 31.2474 19.7487 31.4921 20.1521 31.6111C20.6812 31.7566 20.8995 31.8426 20.8995 31.9153C20.8995 31.9683 20.4497 32.8743 19.8942 33.9325C19.3452 34.9907 18.7434 36.1481 18.5516 36.5119C18.3598 36.8757 17.9431 37.6759 17.6257 38.2976C17.3865 38.766 17.0948 39.3244 16.8919 39.7128L16.8914 39.7138L16.8899 39.7167C16.8243 39.8422 16.7682 39.9497 16.7262 40.0304C16.5476 40.3677 16.4021 40.6918 16.4021 40.7447C16.4021 40.7976 16.4616 40.9034 16.5344 40.9762C16.6601 41.1019 16.7526 41.1085 19.1997 41.1085C21.1376 41.1085 21.7526 41.0886 21.8386 41.0291C21.8981 40.9828 22.6257 39.3492 23.4458 37.4048C24.2659 35.4603 24.9603 33.8466 24.9868 33.8135C25.0132 33.787 25.172 34.0847 25.3439 34.4749C25.4639 34.7629 25.7269 35.3787 26.0011 36.0209L26.0015 36.0217L26.0018 36.0223C26.1051 36.2643 26.21 36.51 26.3095 36.7434C26.6427 37.5249 27.0481 38.4896 27.2612 38.9968L27.2615 38.9976L27.2619 38.9985L27.2621 38.999L27.3148 39.1243C27.3826 39.2857 27.457 39.4618 27.5296 39.6336L27.5297 39.634L27.5299 39.6345C27.6625 39.9484 27.7888 40.2474 27.8571 40.414C27.9696 40.672 28.1085 40.9299 28.168 40.996C28.2672 41.1019 28.459 41.1151 30.8201 41.1151C33.1746 41.1151 33.373 41.1019 33.4788 40.996C33.545 40.9299 33.5979 40.8175 33.5979 40.7447C33.5979 40.672 33.2077 39.8519 32.7315 38.9259C32.583 38.6411 32.437 38.3607 32.3037 38.1047L32.3018 38.101L32.3005 38.0987L32.3004 38.0983C32.0019 37.525 31.7677 37.0752 31.713 36.9749C31.6336 36.8294 31.2698 36.1283 30.9061 35.4206C30.5423 34.713 29.9868 33.6349 29.6693 33.0198C29.3585 32.4114 29.1138 31.8823 29.1336 31.8492C29.1534 31.8095 29.3254 31.75 29.5172 31.7103C29.7024 31.664 30.2513 31.4987 30.7209 31.3399C31.1905 31.1746 31.9511 30.8704 32.4074 30.6521C32.8638 30.4339 33.4392 30.1296 33.6971 29.9775C33.955 29.8254 34.3518 29.5741 34.5899 29.4087C34.828 29.25 35.1918 28.9854 35.4034 28.8267C35.6085 28.668 35.7936 28.4828 35.8135 28.4101C35.8333 28.3373 35.8003 28.1984 35.7474 28.0926C35.6944 27.9934 35.1389 27.213 34.5106 26.3598C33.4524 24.9312 33.3466 24.8056 33.1481 24.7857C32.9828 24.7791 32.8571 24.8386 32.5595 25.0899C32.3479 25.2619 31.8783 25.5992 31.5145 25.8439C31.1508 26.082 30.5093 26.459 30.0926 26.6706C29.6759 26.8889 28.9616 27.1865 28.5053 27.332C28.0489 27.4841 27.3677 27.6693 26.9841 27.7421C26.6005 27.8148 25.9656 27.8942 25.5622 27.914C25.1323 27.9405 24.5238 27.9272 24.0741 27.8876C23.6574 27.8413 23.0622 27.7553 22.7513 27.6892C22.4405 27.6164 21.9048 27.4709 21.5608 27.3585C21.2169 27.246 20.5423 26.9616 20.0727 26.7302C19.6032 26.4987 19.0212 26.1812 18.7831 26.0291C18.545 25.8704 18.0622 25.5265 17.7116 25.2619C17.2619 24.9246 17.004 24.7725 16.8783 24.7725C16.7196 24.7725 16.6204 24.8717 16.1706 25.4802C16.0107 25.7033 15.8174 25.9661 15.6458 26.1993ZM24.2726 13.2976C24.0345 13.3571 23.6906 13.4696 23.512 13.5489C23.3268 13.6349 23.016 13.8267 22.8176 13.9722C22.6192 14.1243 22.3281 14.4021 22.1826 14.5939C22.0305 14.7923 21.8453 15.0701 21.7726 15.2156C21.6998 15.3611 21.5874 15.6587 21.5213 15.877C21.4419 16.1349 21.4022 16.4788 21.4088 16.8691C21.4088 17.332 21.4485 17.5767 21.5874 17.9802C21.68 18.2579 21.8718 18.6614 22.0107 18.8664C22.1562 19.078 22.4141 19.3757 22.5927 19.5344C22.7713 19.6931 23.049 19.8982 23.2144 19.9907C23.3797 20.09 23.6774 20.2222 23.8758 20.2884C24.0742 20.3545 24.4644 20.4339 24.7356 20.4537C25.0266 20.4802 25.4035 20.4603 25.6615 20.414C25.8996 20.3677 26.3295 20.2156 26.6205 20.0767C27.0041 19.8982 27.2686 19.7064 27.5662 19.4021C27.7977 19.1706 28.0821 18.7937 28.2078 18.5556C28.3268 18.3175 28.4789 17.9339 28.5319 17.6958C28.5914 17.4577 28.6377 17.0807 28.6377 16.8492C28.6377 16.6243 28.6046 16.2804 28.5649 16.0886C28.5252 15.9034 28.3863 15.5198 28.2607 15.2487C28.0821 14.8783 27.9035 14.6336 27.553 14.2897C27.2686 14.0053 26.9313 13.754 26.6866 13.6349C26.4684 13.5291 26.1575 13.4034 25.9922 13.3505C25.8268 13.3042 25.4697 13.2513 25.1985 13.2315C24.8877 13.2116 24.5438 13.2381 24.2726 13.2976Z" fill="white"></path> </svg> 